<svg xmlns="http://www.w3.org/2000/svg" xml:space="preserve" style="fill-rule:evenodd;clip-rule:evenodd;stroke-linejoin:round;stroke-miterlimit:2" viewBox="0 0 86 222">
    <path d="M-669.326-1566.154h3426.96v2296.67h-3426.96z"/>
    <path d="M54.34 533.765H140v221.281H54.34z" style="fill:none" transform="translate(-54.34 -533.765)"/>
    <path d="M324.417 606.228h20.16v4.067h-20.16z" style="fill:#6b7088" transform="translate(-268.576 -471.261)"/>
    <path d="M324.417 606.228h20.16v4.067h-20.16z" style="fill:#6b7088" transform="translate(-268.416 -441.261)"/>
    <path d="M324.417 606.228h20.16v4.067h-20.16z" style="fill:#6b7088" transform="matrix(.6937 0 0 1 -169.046 -486.261)"/>
    <path d="M324.417 606.228h20.16v4.067h-20.16z" style="fill:#6b7088" transform="matrix(.6937 0 0 1 -169.206 -456.261)"/>
    <path d="M324.417 606.228h20.16v4.067h-20.16z" style="fill:#6b7088" transform="matrix(.6937 0 0 1 -169.046 -545.87)"/>
    <path d="M324.417 606.228h20.16v4.067h-20.16z" style="fill:#6b7088" transform="matrix(.6937 0 0 1 -169.206 -516.261)"/>
    <path d="M324.417 606.228h20.16v4.067h-20.16z" style="fill:#6b7088" transform="matrix(.6937 0 0 1 -169.046 -576.228)"/>
    <path d="M324.417 606.228h20.16v4.067h-20.16z" style="fill:#6b7088" transform="translate(-268.576 -501.261)"/>
    <path d="M324.417 606.228h20.16v4.067h-20.16z" style="fill:#6b7088" transform="translate(-268.576 -532.295)"/>
    <path d="M324.417 606.228h20.16v4.067h-20.16z" style="fill:#6b7088" transform="translate(-268.416 -561.295)"/>
    <path d="M324.417 606.228h20.16v4.067h-20.16z" style="fill:#6b7088" transform="translate(-268.416 -591.261)"/>
    <path d="M319.93 615.367c6.465 4.994 10.631 12.822 10.631 21.615 0 15.067-12.233 27.3-27.3 27.3s-27.3-12.233-27.3-27.3c0-8.559 3.947-16.203 10.118-21.21l.525-152.953c.029-8.173 7.562-14.94 16.975-14.916 9.415.024 16.903 6.832 16.875 15.007zm-4.048 1.007.527-153.478c.021-6.108-5.805-10.93-12.841-10.949-7.037-.018-12.898 4.776-12.919 10.886l-.529 153.935a2.02 2.02 0 0 1-.807 1.61c-5.65 4.245-9.307 11-9.307 18.604 0 12.835 10.42 23.255 23.255 23.255s23.255-10.42 23.255-23.255c0-7.816-3.865-14.736-9.785-18.954a2.02 2.02 0 0 1-.849-1.654" style="fill:#6b7088" transform="translate(-268.932 -437.989)scale(.98902)"/>
    <path d="M93.333 710.566c4.981 2.883 8.334 8.27 8.334 14.434 0 9.199-7.468 16.667-16.667 16.667S68.333 734.199 68.333 725c0-6.164 3.353-11.551 8.334-14.434V582.331c0-4.6 3.734-8.334 8.333-8.334s8.333 3.734 8.333 8.334zm-3.333.995v-129.23c0-2.76-2.24-5-5-5s-5 2.24-5 5v129.23c0 .633-.358 1.211-.924 1.493-4.39 2.183-7.409 6.715-7.409 11.946 0 7.359 5.974 13.333 13.333 13.333S98.333 732.359 98.333 725c0-5.231-3.019-9.763-7.409-11.946a1.67 1.67 0 0 1-.924-1.493" style="fill:none" transform="matrix(1.2 0 0 1.2 -71 -678)"/>
    <path d="M91.667 711.561C96.604 714.018 100 719.115 100 725c0 8.279-6.721 15-15 15s-15-6.721-15-15c0-5.885 3.396-10.982 8.333-13.439v-129.23A6.67 6.67 0 0 1 85 575.664a6.67 6.67 0 0 1 6.667 6.667z" style="fill:url(#a)" transform="matrix(1.2 0 0 1.2 -70 -678)"/>
    <defs>
        <linearGradient id="a" x1="0" x2="1" y1="0" y2="0" gradientTransform="matrix(0 164.336 -239.809 0 85 575.664)" gradientUnits="userSpaceOnUse">
            <stop offset="0" style="stop-color:#ac1900;stop-opacity:1"/>
            <stop offset=".07" style="stop-color:#b12200;stop-opacity:1"/>
            <stop offset=".13" style="stop-color:#c33e00;stop-opacity:1"/>
            <stop offset=".21" style="stop-color:#036b00;stop-opacity:1"/>
            <stop offset=".39" style="stop-color:#399337;stop-opacity:1"/>
            <stop offset=".51" style="stop-color:#26426f;stop-opacity:1"/>
            <stop offset=".74" style="stop-color:#387398;stop-opacity:1"/>
            <stop offset="1" style="stop-color:#65f1ff;stop-opacity:1"/>
        </linearGradient>
    </defs>
</svg>
