<svg xmlns="http://www.w3.org/2000/svg" xml:space="preserve" style="fill-rule:evenodd;clip-rule:evenodd;stroke-linejoin:round;stroke-miterlimit:2" viewBox="0 0 200 200">
    <path d="M-1200.682-1183.816h3426.96v2296.67h-3426.96z"/>
    <path d="M20.856 28.841h194.975v135.49H20.856z" style="fill:none" transform="matrix(1.02577 0 0 1.47613 -21.393 -42.573)"/>
    <path d="M291.465 86.565c5.9-10.695 17.287-17.947 30.355-17.947 19.119 0 34.642 15.523 34.642 34.642a34.47 34.47 0 0 1-6.13 19.67 23.4 23.4 0 0 0-4.51-3.698c-5.708-5.831-14.241-6.633-19.312-6.742-1.352-4.913-4.461-12.639-12.406-17.553-5.147-4.308-12.393-7.648-22.639-8.372" style="fill:#fff700" transform="translate(-251.592 -26.378)scale(1.152)"/>
    <path d="m93.516 33.513-.039-16s.032-2.088.472-3c.481-1 1.473-2.378 2.418-3 1.175-.774 2.495-1.206 3.795-1.178s2.959.651 4 1.347c1.001.67 1.794 1.859 2.245 2.831.425.918.46 3 .46 3l-.005 16s-.062 1.429-.61 2.701c-.428.995-1.284 1.817-1.774 2.299-1.094 1.074-2.874 1.585-4.316 1.585-1.443 0-3.246-.501-4.339-1.585-.487-.482-1.389-1.421-1.802-2.416-.527-1.272-.505-2.584-.505-2.584" style="fill:#ff0" transform="translate(39.25 11.43)scale(.79814)"/>
    <path d="m93.516 33.513-.039-16s.032-2.088.472-3c.481-1 1.473-2.378 2.418-3 1.175-.774 2.495-1.206 3.795-1.178s2.959.651 4 1.347c1.001.67 1.794 1.859 2.245 2.831.425.918.46 3 .46 3l-.005 16s-.062 1.429-.61 2.701c-.428.995-1.284 1.817-1.774 2.299-1.094 1.074-2.874 1.585-4.316 1.585-1.443 0-3.246-.501-4.339-1.585-.487-.482-1.389-1.421-1.802-2.416-.527-1.272-.505-2.584-.505-2.584" style="fill:#ff0" transform="matrix(.6912 -.39907 .39907 .69121 9.48 62.253)"/>
    <path d="m93.516 33.513-.039-16s.032-2.088.472-3c.481-1 1.473-2.378 2.418-3 1.175-.774 2.495-1.206 3.795-1.178s2.959.651 4 1.347c1.001.67 1.794 1.859 2.245 2.831.425.918.46 3 .46 3l-.005 16s-.062 1.429-.61 2.701c-.428.995-1.284 1.817-1.774 2.299-1.094 1.074-2.874 1.585-4.316 1.585-1.443 0-3.246-.501-4.339-1.585-.487-.482-1.389-1.421-1.802-2.416-.527-1.272-.505-2.584-.505-2.584" style="fill:#ff0" transform="matrix(.39907 -.69121 .6912 .39907 9.11 121.152)"/>
    <path d="m93.516 33.513-.039-16s.032-2.088.472-3c.481-1 1.473-2.378 2.418-3 1.175-.774 2.495-1.206 3.795-1.178s2.959.651 4 1.347c1.001.67 1.794 1.859 2.245 2.831.425.918.46 3 .46 3l-.005 16s-.062 1.429-.61 2.701c-.428.995-1.284 1.817-1.774 2.299-1.094 1.074-2.874 1.585-4.316 1.585-1.443 0-3.246-.501-4.339-1.585-.487-.482-1.389-1.421-1.802-2.416-.527-1.272-.505-2.584-.505-2.584" style="fill:#ff0" transform="matrix(-.39907 .69121 -.6912 -.39907 229.292 63.633)"/>
    <path d="m93.516 33.513-.039-16s.032-2.088.472-3c.481-1 1.473-2.378 2.418-3 1.175-.774 2.495-1.206 3.795-1.178s2.959.651 4 1.347c1.001.67 1.794 1.859 2.245 2.831.425.918.46 3 .46 3l-.005 16s-.062 1.429-.61 2.701c-.428.995-1.284 1.817-1.774 2.299-1.094 1.074-2.874 1.585-4.316 1.585-1.443 0-3.246-.501-4.339-1.585-.487-.482-1.389-1.421-1.802-2.416-.527-1.272-.505-2.584-.505-2.584" style="fill:#ff0" transform="rotate(90 93.862 106.302)scale(.79814)"/>
    <path d="m93.516 33.513-.039-16s.032-2.088.472-3c.481-1 1.473-2.378 2.418-3 1.175-.774 2.495-1.206 3.795-1.178s2.959.651 4 1.347c1.001.67 1.794 1.859 2.245 2.831.425.918.46 3 .46 3l-.005 16s-.062 1.429-.61 2.701c-.428.995-1.284 1.817-1.774 2.299-1.094 1.074-2.874 1.585-4.316 1.585-1.443 0-3.246-.501-4.339-1.585-.487-.482-1.389-1.421-1.802-2.416-.527-1.272-.505-2.584-.505-2.584" style="fill:#ff0" transform="matrix(.39907 .69121 -.6912 .39907 149.34 -17.33)"/>
    <path d="m93.516 33.513-.039-16s.032-2.088.472-3c.481-1 1.473-2.378 2.418-3 1.175-.774 2.495-1.206 3.795-1.178s2.959.651 4 1.347c1.001.67 1.794 1.859 2.245 2.831.425.918.46 3 .46 3l-.005 16s-.062 1.429-.61 2.701c-.428.995-1.284 1.817-1.774 2.299-1.094 1.074-2.874 1.585-4.316 1.585-1.443 0-3.246-.501-4.339-1.585-.487-.482-1.389-1.421-1.802-2.416-.527-1.272-.505-2.584-.505-2.584" style="fill:#ff0" transform="matrix(.6912 .39907 -.39907 .69121 90.442 -17.699)"/>
    <path d="M59.694 92.473c2.238-10.8 13.266-32.983 39.401-31.446 27.803 1.635 36.027 20.475 38.83 30.639 7.145.151 19.243 1.289 27.167 9.718 5.218 5.551 9.131 13.987 8.824 27.031-.294 12.469-11.774 26.563-24.142 29.85-9.87 2.623-28.724 1.291-47.131.936-16.87-.325-33.365.48-42.224-.621-8.593-1.069-17.961-8.497-21.796-14.136-3.991-5.87-5.19-12.478-5.178-18.679.022-10.397 3.434-16.557 7.253-21.658 5.878-7.852 13.634-10.551 18.996-11.634m10.18 10.227c-7.902 1.07-13.874 1.4-19.208 8.526-2.468 3.297-4.633 7.931-4.647 14.651a20 20 0 0 0 3.426 11.166c2.429 3.574 8.09 8.711 13.527 9.226 7.742.733 23.272.409 39.359.564 17.324.166 35.095.906 43.62-.769 8.02-1.576 15.3-11.324 15.478-18.879.198-8.413-2.686-13.088-6.052-16.668-7.815-8.314-14.76-6.575-20.145-6.735-1.997-.06-7.05-.045-7.05-.045s-.422-3.737-.577-5.581c0 0-2.997-23.542-29.046-25.074-11.026-.648-18.547 5.237-22.365 11.348-4.146 6.636-3.834 6.406-4.887 9.451-.974 2.814-.948 6.219-1.433 8.819" style="fill:#fff" transform="translate(-26.694 14.091)scale(1.0399)"/>
    <path d="M291.465 86.565c5.9-10.695 17.287-17.947 30.355-17.947 19.119 0 34.642 15.523 34.642 34.642a34.47 34.47 0 0 1-6.13 19.67 23.4 23.4 0 0 0-4.51-3.698c-5.708-5.831-14.241-6.633-19.312-6.742-1.352-4.913-4.461-12.639-12.406-17.553-5.147-4.308-12.393-7.648-22.639-8.372" style="fill:#fff700" transform="translate(-251.592 -26.378)scale(1.152)"/>
    <path d="m93.516 33.513-.039-16s.032-2.088.472-3c.481-1 1.473-2.378 2.418-3 1.175-.774 2.495-1.206 3.795-1.178s2.959.651 4 1.347c1.001.67 1.794 1.859 2.245 2.831.425.918.46 3 .46 3l-.005 16s-.062 1.429-.61 2.701c-.428.995-1.284 1.817-1.774 2.299-1.094 1.074-2.874 1.585-4.316 1.585-1.443 0-3.246-.501-4.339-1.585-.487-.482-1.389-1.421-1.802-2.416-.527-1.272-.505-2.584-.505-2.584" style="fill:#ff0" transform="translate(39.25 11.43)scale(.79814)"/>
    <path d="m93.516 33.513-.039-16s.032-2.088.472-3c.481-1 1.473-2.378 2.418-3 1.175-.774 2.495-1.206 3.795-1.178s2.959.651 4 1.347c1.001.67 1.794 1.859 2.245 2.831.425.918.46 3 .46 3l-.005 16s-.062 1.429-.61 2.701c-.428.995-1.284 1.817-1.774 2.299-1.094 1.074-2.874 1.585-4.316 1.585-1.443 0-3.246-.501-4.339-1.585-.487-.482-1.389-1.421-1.802-2.416-.527-1.272-.505-2.584-.505-2.584" style="fill:#ff0" transform="matrix(.6912 -.39907 .39907 .69121 9.48 62.253)"/>
    <path d="m93.516 33.513-.039-16s.032-2.088.472-3c.481-1 1.473-2.378 2.418-3 1.175-.774 2.495-1.206 3.795-1.178s2.959.651 4 1.347c1.001.67 1.794 1.859 2.245 2.831.425.918.46 3 .46 3l-.005 16s-.062 1.429-.61 2.701c-.428.995-1.284 1.817-1.774 2.299-1.094 1.074-2.874 1.585-4.316 1.585-1.443 0-3.246-.501-4.339-1.585-.487-.482-1.389-1.421-1.802-2.416-.527-1.272-.505-2.584-.505-2.584" style="fill:#ff0" transform="matrix(.39907 -.69121 .6912 .39907 9.11 121.152)"/>
    <path d="m93.516 33.513-.039-16s.032-2.088.472-3c.481-1 1.473-2.378 2.418-3 1.175-.774 2.495-1.206 3.795-1.178s2.959.651 4 1.347c1.001.67 1.794 1.859 2.245 2.831.425.918.46 3 .46 3l-.005 16s-.062 1.429-.61 2.701c-.428.995-1.284 1.817-1.774 2.299-1.094 1.074-2.874 1.585-4.316 1.585-1.443 0-3.246-.501-4.339-1.585-.487-.482-1.389-1.421-1.802-2.416-.527-1.272-.505-2.584-.505-2.584" style="fill:#ff0" transform="matrix(-.39907 .69121 -.6912 -.39907 229.292 63.633)"/>
    <path d="m93.516 33.513-.039-16s.032-2.088.472-3c.481-1 1.473-2.378 2.418-3 1.175-.774 2.495-1.206 3.795-1.178s2.959.651 4 1.347c1.001.67 1.794 1.859 2.245 2.831.425.918.46 3 .46 3l-.005 16s-.062 1.429-.61 2.701c-.428.995-1.284 1.817-1.774 2.299-1.094 1.074-2.874 1.585-4.316 1.585-1.443 0-3.246-.501-4.339-1.585-.487-.482-1.389-1.421-1.802-2.416-.527-1.272-.505-2.584-.505-2.584" style="fill:#ff0" transform="rotate(90 93.862 106.302)scale(.79814)"/>
    <path d="m93.516 33.513-.039-16s.032-2.088.472-3c.481-1 1.473-2.378 2.418-3 1.175-.774 2.495-1.206 3.795-1.178s2.959.651 4 1.347c1.001.67 1.794 1.859 2.245 2.831.425.918.46 3 .46 3l-.005 16s-.062 1.429-.61 2.701c-.428.995-1.284 1.817-1.774 2.299-1.094 1.074-2.874 1.585-4.316 1.585-1.443 0-3.246-.501-4.339-1.585-.487-.482-1.389-1.421-1.802-2.416-.527-1.272-.505-2.584-.505-2.584" style="fill:#ff0" transform="matrix(.39907 .69121 -.6912 .39907 149.34 -17.33)"/>
    <path d="m93.516 33.513-.039-16s.032-2.088.472-3c.481-1 1.473-2.378 2.418-3 1.175-.774 2.495-1.206 3.795-1.178s2.959.651 4 1.347c1.001.67 1.794 1.859 2.245 2.831.425.918.46 3 .46 3l-.005 16s-.062 1.429-.61 2.701c-.428.995-1.284 1.817-1.774 2.299-1.094 1.074-2.874 1.585-4.316 1.585-1.443 0-3.246-.501-4.339-1.585-.487-.482-1.389-1.421-1.802-2.416-.527-1.272-.505-2.584-.505-2.584" style="fill:#ff0" transform="matrix(.6912 .39907 -.39907 .69121 90.442 -17.699)"/>
    <path d="M59.694 92.473c2.238-10.8 13.266-32.983 39.401-31.446 27.803 1.635 36.027 20.475 38.83 30.639 7.145.151 19.243 1.289 27.167 9.718 5.218 5.551 9.131 13.987 8.824 27.031-.294 12.469-11.774 26.563-24.142 29.85-9.87 2.623-28.724 1.291-47.131.936-16.87-.325-33.365.48-42.224-.621-8.593-1.069-17.961-8.497-21.796-14.136-3.991-5.87-5.19-12.478-5.178-18.679.022-10.397 3.434-16.557 7.253-21.658 5.878-7.852 13.634-10.551 18.996-11.634m10.18 10.227c-7.902 1.07-13.874 1.4-19.208 8.526-2.468 3.297-4.633 7.931-4.647 14.651a20 20 0 0 0 3.426 11.166c2.429 3.574 8.09 8.711 13.527 9.226 7.742.733 23.272.409 39.359.564 17.324.166 35.095.906 43.62-.769 8.02-1.576 15.3-11.324 15.478-18.879.198-8.413-2.686-13.088-6.052-16.668-7.815-8.314-14.76-6.575-20.145-6.735-1.997-.06-7.05-.045-7.05-.045s-.422-3.737-.577-5.581c0 0-2.997-23.542-29.046-25.074-11.026-.648-18.547 5.237-22.365 11.348-4.146 6.636-3.834 6.406-4.887 9.451-.974 2.814-.948 6.219-1.433 8.819" style="fill:#fff" transform="translate(-26.694 14.091)scale(1.0399)"/>
</svg>
