<svg xmlns="http://www.w3.org/2000/svg" xml:space="preserve" style="fill-rule:evenodd;clip-rule:evenodd;stroke-linejoin:round;stroke-miterlimit:2" viewBox="0 0 200 200">
    <path d="M-681.791-1175.76h3426.96v2296.67h-3426.96z"/>
    <g transform="matrix(1.02577 0 0 1.47613 -21.394 -42.573)">
        <path d="M20.856 28.841h194.975v135.49H20.856z" />
        <clipPath id="a">
            <path d="M20.856 28.841h194.975v135.49H20.856z"/>
        </clipPath>
        <g clip-path="url(#a)">
            <path d="M259.361 376.175c3.324-21.961 22.049-38.897 44.802-39.439-13.141 18.504-14.446 40.519-2.128 51.721 11.942 10.86 32.789 8.011 49.701-5.689l.001.405c0 19.998-12.664 37.061-30.403 43.599a35.7 35.7 0 0 0-5.659-7.982c-9.518-10.125-24.051-11.492-32.634-11.673-2.42-8.778-8.207-22.943-23.68-30.942"  transform="matrix(.84396 0 0 .58647 -94.437 -168.646)"/>
            <path d="M59.694 92.473c2.238-10.8 13.266-32.983 39.401-31.446 27.803 1.635 36.027 20.475 38.83 30.639 7.145.151 19.243 1.289 27.167 9.718 5.218 5.551 9.131 13.987 8.824 27.031-.294 12.469-11.774 26.563-24.142 29.85-9.87 2.623-28.724 1.291-47.131.936-16.87-.325-33.365.48-42.224-.621-8.593-1.069-17.961-8.497-21.796-14.136-3.991-5.87-5.19-12.478-5.178-18.679.022-10.397 3.434-16.557 7.253-21.658 5.878-7.852 13.634-10.551 18.996-11.634m10.18 10.227c-7.902 1.07-13.874 1.4-19.208 8.526-2.468 3.297-4.633 7.931-4.647 14.651a20 20 0 0 0 3.426 11.166c2.429 3.574 8.09 8.711 13.527 9.226 7.742.733 23.272.409 39.359.564 17.324.166 35.095.906 43.62-.769 8.02-1.576 15.3-11.324 15.478-18.879.198-8.413-2.686-13.088-6.052-16.668-7.815-8.314-14.76-6.575-20.145-6.735-1.997-.06-7.05-.045-7.05-.045s-.422-3.737-.577-5.581c0 0-2.997-23.542-29.046-25.074-11.026-.648-18.547 5.237-22.365 11.348-4.146 6.636-3.834 6.406-4.887 9.451-.974 2.814-.948 6.219-1.433 8.819"  transform="matrix(1.01377 0 0 .70447 .367 12.305)"/>
            <path d="M27.889 140.854c-2.248.014-4.041.703-4.002 1.538.039.834 1.895 1.5 4.143 1.485l47.189-.302q.226-.002.451-.013s5.062-.254 8.742-1.129c2.965-.705 4.966-1.723 6.008-2.878.881-.978 1.067-3.016.133-3.943-1.188-1.178-3.195-2.315-7.338-3.267-4.373-1.004-10.112-1.089-13.755-.865-3.173.196-6.819.921-9.263 2.449-2.522 1.578-2.789 3.618-2.789 3.618-.099.834 1.645 1.54 3.89 1.577s4.149-.611 4.248-1.445c0 0 .121-1.246 1.656-2.207.968-.605 2.335-.931 3.591-1.009 2.148-.132 5.557-.139 8.135.454 2.238.514 3.354 1.118 3.995 1.754.456.453.202 1.447-.228 1.924-.466.518-1.35.976-2.677 1.292-1.908.454-4.431.623-5.186.666z"  transform="matrix(.63827 0 0 -1.1949 36.364 318.098)"/>
            <path d="M28.03 143.877c-2.248.015-4.104-.651-4.143-1.485s1.754-1.524 4.002-1.538l46.948-.301c.738-.042 3.269-.211 5.181-.666 1.327-.316 2.211-.774 2.677-1.292.43-.477.684-1.471.228-1.924-.641-.636-1.757-1.24-3.995-1.754-2.578-.593-5.987-.586-8.135-.454-1.256.078-2.623.404-3.591 1.009-1.535.961-1.656 2.207-1.656 2.207-.099.834-2.002 1.481-4.248 1.445-2.245-.037-3.989-.743-3.89-1.577 0 0 .267-2.04 2.789-3.618 2.444-1.528 6.09-2.253 9.263-2.449 3.643-.224 9.382-.139 13.755.865 4.143.952 6.15 2.089 7.338 3.267.934.927.748 2.965-.133 3.943-1.042 1.155-3.043 2.173-6.008 2.878-3.68.875-8.742 1.129-8.742 1.129q-.226.011-.451.013z"  transform="matrix(.63827 0 0 1.1949 52.245 -29.9)"/>
            <path d="M7.534 235.956a2.67 2.67 0 0 1-2.667-2.667 2.67 2.67 0 0 1 2.667-2.666h22.055a2.67 2.67 0 0 1 2.666 2.666 2.67 2.67 0 0 1-2.666 2.667z"  transform="matrix(.97487 0 0 .67745 29.528 -17.828)"/>
            <path d="M83.728 139.642c.385-.456.463-1.198.337-2.232-.121-.997-1.041-1.234-1.833-1.322-1.402-.156-2.751.129-2.751.129-1.42.301-2.848-.471-3.189-1.723s.534-2.514 1.953-2.814c0 0 2.279-.485 4.648-.222 2.982.331 5.976 1.698 6.431 5.456.37 3.05-.665 5-1.996 6.169-.578.508-2.553 1.228-2.553 1.228-.273.085-.56.129-.849.131l-42.411.348c-1.46.012-2.656-1.024-2.669-2.312-.014-1.288 1.16-2.343 2.619-2.355l41.898-.343z"  transform="matrix(.86022 0 0 .67745 3.75 36.507)"/>
        </g>
    </g>
</svg>
