<svg xmlns="http://www.w3.org/2000/svg" xml:space="preserve" style="fill-rule:evenodd;clip-rule:evenodd;stroke-linejoin:round;stroke-miterlimit:2" viewBox="0 0 200 200">
    <path d="M-2660.752-1175.76h3426.96v2296.67h-3426.96z"/>
    <path d="M110.76-68.766h207.368v187.4H110.76z"  transform="matrix(.96447 0 0 1.06723 -106.82 73.389)"/>
    <path d="M288.427 112.504a34.6 34.6 0 0 1-1.249-9.244c0-19.119 15.522-34.642 34.642-34.642 19.119 0 34.642 15.523 34.642 34.642 0 3.213-.439 6.325-1.259 9.278z"  transform="matrix(1.13837 -.00057 .00057 1.13836 -266.404 -17.365)"/>
    <path d="m93.516 33.513-.039-16s.032-2.088.472-3c.481-1 1.473-2.378 2.418-3 1.175-.774 2.495-1.206 3.795-1.178s2.959.651 4 1.347c1.001.67 1.794 1.859 2.245 2.831.425.918.46 3 .46 3l-.005 16s-.062 1.429-.61 2.701c-.428.995-1.284 1.817-1.774 2.299-1.094 1.074-2.874 1.585-4.316 1.585-1.443 0-3.246-.501-4.339-1.585-.487-.482-1.389-1.421-1.802-2.416-.527-1.272-.505-2.584-.505-2.584"  transform="translate(20.998 19.996)scale(.7887)"/>
    <path d="m93.516 33.513-.039-16s.032-2.088.472-3c.481-1 1.473-2.378 2.418-3 1.175-.774 2.495-1.206 3.795-1.178s2.959.651 4 1.347c1.001.67 1.794 1.859 2.245 2.831.425.918.46 3 .46 3l-.005 16s-.062 1.429-.61 2.701c-.428.995-1.284 1.817-1.774 2.299-1.094 1.074-2.874 1.585-4.316 1.585-1.443 0-3.246-.501-4.339-1.585-.487-.482-1.389-1.421-1.802-2.416-.527-1.272-.505-2.584-.505-2.584"  transform="matrix(.68304 -.39435 .39435 .68303 -8.419 70.217)"/>
    <path d="m93.516 33.513-.039-16s.032-2.088.472-3c.481-1 1.473-2.378 2.418-3 1.175-.774 2.495-1.206 3.795-1.178s2.959.651 4 1.347c1.001.67 1.794 1.859 2.245 2.831.425.918.46 3 .46 3l-.005 16s-.062 1.429-.61 2.701c-.428.995-1.284 1.817-1.774 2.299-1.094 1.074-2.874 1.585-4.316 1.585-1.443 0-3.246-.501-4.339-1.585-.487-.482-1.389-1.421-1.802-2.416-.527-1.272-.505-2.584-.505-2.584"  transform="matrix(.39435 -.68303 .68304 .39435 -8.784 128.419)"/>
    <path d="m93.516 33.513-.039-16s.032-2.088.472-3c.481-1 1.473-2.378 2.418-3 1.175-.774 2.495-1.206 3.795-1.178s2.959.651 4 1.347c1.001.67 1.794 1.859 2.245 2.831.425.918.46 3 .46 3l-.005 16s-.062 1.429-.61 2.701c-.428.995-1.284 1.817-1.774 2.299-1.094 1.074-2.874 1.585-4.316 1.585-1.443 0-3.246-.501-4.339-1.585-.487-.482-1.389-1.421-1.802-2.416-.527-1.272-.505-2.584-.505-2.584"  transform="matrix(0 -.7887 .7887 0 20 179.005)"/>
    <path d="m93.516 33.513-.039-16s.032-2.088.472-3c.481-1 1.473-2.378 2.418-3 1.175-.774 2.495-1.206 3.795-1.178s2.959.651 4 1.347c1.001.67 1.794 1.859 2.245 2.831.425.918.46 3 .46 3l-.005 16s-.062 1.429-.61 2.701c-.428.995-1.284 1.817-1.774 2.299-1.094 1.074-2.874 1.585-4.316 1.585-1.443 0-3.246-.501-4.339-1.585-.487-.482-1.389-1.421-1.802-2.416-.527-1.272-.505-2.584-.505-2.584"  transform="rotate(90 79.507 100.501)scale(.7887)"/>
    <path d="m93.516 33.513-.039-16s.032-2.088.472-3c.481-1 1.473-2.378 2.418-3 1.175-.774 2.495-1.206 3.795-1.178s2.959.651 4 1.347c1.001.67 1.794 1.859 2.245 2.831.425.918.46 3 .46 3l-.005 16s-.062 1.429-.61 2.701c-.428.995-1.284 1.817-1.774 2.299-1.094 1.074-2.874 1.585-4.316 1.585-1.443 0-3.246-.501-4.339-1.585-.487-.482-1.389-1.421-1.802-2.416-.527-1.272-.505-2.584-.505-2.584"  transform="matrix(.39435 .68303 -.68304 .39435 129.788 -8.423)"/>
    <path d="m93.516 33.513-.039-16s.032-2.088.472-3c.481-1 1.473-2.378 2.418-3 1.175-.774 2.495-1.206 3.795-1.178s2.959.651 4 1.347c1.001.67 1.794 1.859 2.245 2.831.425.918.46 3 .46 3l-.005 16s-.062 1.429-.61 2.701c-.428.995-1.284 1.817-1.774 2.299-1.094 1.074-2.874 1.585-4.316 1.585-1.443 0-3.246-.501-4.339-1.585-.487-.482-1.389-1.421-1.802-2.416-.527-1.272-.505-2.584-.505-2.584"  transform="matrix(.68304 .39435 -.39435 .68303 71.586 -8.789)"/>
    <circle cx="593.82" cy="187.851" r="5.069" style="fill:#0e00ff" transform="matrix(1.64744 0 0 1.64743 -948.374 -174.553)"/>
    <circle cx="593.82" cy="187.851" r="5.069" style="fill:#0e00ff" transform="matrix(1.64744 0 0 1.64743 -901.63 -174.553)"/>
    <circle cx="593.82" cy="187.851" r="5.069" style="fill:#0e00ff" transform="matrix(1.64744 0 0 1.64743 -854.892 -174.553)"/>
    <circle cx="593.82" cy="187.851" r="5.069" style="fill:#0e00ff" transform="matrix(1.64744 0 0 1.64743 -922.814 -146.521)"/>
    <circle cx="593.82" cy="187.851" r="5.069" style="fill:#0e00ff" transform="matrix(1.64744 0 0 1.64743 -876.07 -146.521)"/>
    <circle cx="593.82" cy="187.851" r="5.069" style="fill:#0e00ff" transform="matrix(1.64744 0 0 1.64743 -829.331 -146.521)"/>
    <circle cx="593.82" cy="187.851" r="5.069" style="fill:#0e00ff" transform="matrix(1.64744 0 0 1.64743 -808.178 -174.553)"/>
</svg>
