<?xml version="1.0" encoding="UTF-8" standalone="no"?>
<!DOCTYPE svg PUBLIC "-//W3C//DTD SVG 1.1//EN" "http://www.w3.org/Graphics/SVG/1.1/DTD/svg11.dtd">
<svg width="100%" height="100%" viewBox="0 0 175 58" version="1.1" xmlns="http://www.w3.org/2000/svg" xmlns:xlink="http://www.w3.org/1999/xlink" xml:space="preserve" xmlns:serif="http://www.serif.com/" style="fill-rule:evenodd;clip-rule:evenodd;stroke-linejoin:round;stroke-miterlimit:2;">
    <g transform="matrix(1,0,0,1,-996.711,-180)">
        <g id="Drizzle" transform="matrix(1,0,0,1,446.169,-0.556099)">
            <rect x="550.542" y="180.556" width="174.876" height="57.531" style="fill:none;"/>
            <g transform="matrix(1.64744,0,0,1.64744,-409.169,-114.323)">
                <circle cx="593.82" cy="187.851" r="5.069" style="fill:rgb(14,0,255);"/>
            </g>
            <g transform="matrix(1.64744,0,0,1.64744,-362.425,-114.323)">
                <circle cx="593.82" cy="187.851" r="5.069" style="fill:rgb(14,0,255);"/>
            </g>
            <g transform="matrix(1.64744,0,0,1.64744,-315.686,-114.323)">
                <circle cx="593.82" cy="187.851" r="5.069" style="fill:rgb(14,0,255);"/>
            </g>
            <g transform="matrix(1.64744,0,0,1.64744,-383.608,-86.2911)">
                <circle cx="593.82" cy="187.851" r="5.069" style="fill:rgb(14,0,255);"/>
            </g>
            <g transform="matrix(1.64744,0,0,1.64744,-336.865,-86.2911)">
                <circle cx="593.82" cy="187.851" r="5.069" style="fill:rgb(14,0,255);"/>
            </g>
            <g transform="matrix(1.64744,0,0,1.64744,-290.125,-86.2911)">
                <circle cx="593.82" cy="187.851" r="5.069" style="fill:rgb(14,0,255);"/>
            </g>
            <g transform="matrix(1.64744,0,0,1.64744,-268.972,-114.323)">
                <circle cx="593.82" cy="187.851" r="5.069" style="fill:rgb(14,0,255);"/>
            </g>
        </g>
    </g>
</svg>
