<?xml version="1.0" encoding="UTF-8" standalone="no"?>
<!DOCTYPE svg PUBLIC "-//W3C//DTD SVG 1.1//EN" "http://www.w3.org/Graphics/SVG/1.1/DTD/svg11.dtd">
<svg width="100%" height="100%" viewBox="0 0 88 63" version="1.1" xmlns="http://www.w3.org/2000/svg" xmlns:xlink="http://www.w3.org/1999/xlink" xml:space="preserve" xmlns:serif="http://www.serif.com/" style="fill-rule:evenodd;clip-rule:evenodd;stroke-linejoin:round;stroke-miterlimit:2;">
    <g transform="matrix(1,0,0,1,-429.319,-206.234)">
        <g id="Wind" transform="matrix(0.452515,0,0,0.507373,387.555,106.96)">
            <rect x="92.292" y="195.663" width="193.971" height="123.875" style="fill:none;"/>
            <g transform="matrix(1.44685,0,0,-3.47639,107.789,766.519)">
                <path d="M27.889,140.854C25.641,140.868 23.848,141.557 23.887,142.392C23.926,143.226 25.782,143.892 28.03,143.877L75.219,143.575C75.369,143.574 75.52,143.569 75.67,143.562C75.67,143.562 80.732,143.308 84.412,142.433C87.377,141.728 89.378,140.71 90.42,139.555C91.301,138.577 91.487,136.539 90.553,135.612C89.365,134.434 87.358,133.297 83.215,132.345C78.842,131.341 73.103,131.256 69.46,131.48C66.287,131.676 62.641,132.401 60.197,133.929C57.675,135.507 57.408,137.547 57.408,137.547C57.309,138.381 59.053,139.087 61.298,139.124C63.544,139.16 65.447,138.513 65.546,137.679C65.546,137.679 65.667,136.433 67.202,135.472C68.17,134.867 69.537,134.541 70.793,134.463C72.941,134.331 76.35,134.324 78.928,134.917C81.166,135.431 82.282,136.035 82.923,136.671C83.379,137.124 83.125,138.118 82.695,138.595C82.229,139.113 81.345,139.571 80.018,139.887C78.11,140.341 75.587,140.51 74.832,140.553L27.889,140.854Z" style="fill:rgb(14,0,255);"/>
            </g>
            <g transform="matrix(1.44685,0,0,3.47639,143.787,-245.93)">
                <path d="M28.03,143.877C25.782,143.892 23.926,143.226 23.887,142.392C23.848,141.557 25.641,140.868 27.889,140.854L74.837,140.553C75.575,140.511 78.106,140.342 80.018,139.887C81.345,139.571 82.229,139.113 82.695,138.595C83.125,138.118 83.379,137.124 82.923,136.671C82.282,136.035 81.166,135.431 78.928,134.917C76.35,134.324 72.941,134.331 70.793,134.463C69.537,134.541 68.17,134.867 67.202,135.472C65.667,136.433 65.546,137.679 65.546,137.679C65.447,138.513 63.544,139.16 61.298,139.124C59.053,139.087 57.309,138.381 57.408,137.547C57.408,137.547 57.675,135.507 60.197,133.929C62.641,132.401 66.287,131.676 69.46,131.48C73.103,131.256 78.842,131.341 83.215,132.345C87.358,133.297 89.365,134.434 90.553,135.612C91.487,136.539 91.301,138.577 90.42,139.555C89.378,140.71 87.377,141.728 84.412,142.433C80.732,143.308 75.67,143.562 75.67,143.562C75.52,143.569 75.369,143.574 75.219,143.575L28.03,143.877Z" style="fill:rgb(14,0,255);"/>
            </g>
            <g transform="matrix(2.20987,0,0,1.97094,92.2917,-210.811)">
                <path d="M7.534,233.289L29.589,233.289" style="fill:none;"/>
            </g>
            <g transform="matrix(2.20987,0,0,1.97094,92.2917,-210.811)">
                <path d="M7.534,235.956C6.062,235.956 4.867,234.761 4.867,233.289C4.867,231.818 6.062,230.623 7.534,230.623L29.589,230.623C31.06,230.623 32.255,231.818 32.255,233.289C32.255,234.761 31.06,235.956 29.589,235.956L7.534,235.956Z" style="fill:rgb(14,0,255);"/>
            </g>
            <g transform="matrix(1.94998,0,0,1.97094,33.8594,-52.7303)">
                <path d="M83.728,139.642C84.113,139.186 84.191,138.444 84.065,137.41C83.944,136.413 83.024,136.176 82.232,136.088C80.83,135.932 79.481,136.217 79.481,136.217C78.061,136.518 76.633,135.746 76.292,134.494C75.951,133.241 76.826,131.98 78.245,131.68C78.245,131.68 80.524,131.195 82.893,131.458C85.875,131.789 88.869,133.156 89.324,136.914C89.694,139.964 88.659,141.914 87.328,143.083C86.75,143.591 84.775,144.311 84.775,144.311C84.502,144.396 84.215,144.44 83.926,144.442L41.515,144.79C40.055,144.802 38.859,143.766 38.846,142.478C38.832,141.19 40.006,140.135 41.465,140.123L83.363,139.78L83.728,139.642Z" style="fill:rgb(14,0,255);"/>
            </g>
        </g>
    </g>
</svg>
