<?xml version="1.0" encoding="UTF-8" standalone="no"?>
<!DOCTYPE svg PUBLIC "-//W3C//DTD SVG 1.1//EN" "http://www.w3.org/Graphics/SVG/1.1/DTD/svg11.dtd">
<svg width="100%" height="100%" viewBox="0 0 25 54" version="1.1" xmlns="http://www.w3.org/2000/svg" xmlns:xlink="http://www.w3.org/1999/xlink" xml:space="preserve" xmlns:serif="http://www.serif.com/" style="fill-rule:evenodd;clip-rule:evenodd;stroke-linejoin:round;stroke-miterlimit:2;">
    <g transform="matrix(1,0,0,1,-871.515,-536.257)">
        <g id="Lightning" transform="matrix(0.149062,0,0,0.46189,869.944,433.841)">
            <rect x="10.536" y="221.732" width="166.517" height="116.313" style="fill:none;"/>
            <g transform="matrix(4.24286,0,0,2.16502,-607.35,-102.752)">
                <path d="M164.003,153.223C166.22,153.154 173.953,153.125 176.134,153.205C176.492,153.218 176.825,153.458 177.086,153.703C177.364,153.964 177.672,154.417 177.8,154.77C177.919,155.101 177.851,155.825 177.851,155.825L171.476,165.702C171.476,165.702 174.366,165.728 175.144,165.813C175.503,165.853 175.871,165.986 176.15,166.216C176.437,166.453 176.757,166.838 176.872,167.239C176.99,167.648 177.084,168.249 176.855,168.665C175.887,170.426 171.065,177.804 171.065,177.804C171.065,177.804 173.583,177.749 174.295,177.84C174.68,177.889 175.057,178.085 175.341,178.349C175.629,178.618 175.954,179.026 176.026,179.453C176.103,179.91 176.17,180.679 175.802,181.089C172.653,184.6 160.462,197.216 157.132,200.521C156.808,200.842 156.243,201.009 155.822,200.92C155.4,200.831 154.825,200.312 154.602,199.985C154.407,199.701 154.355,199.278 154.483,198.958C155.431,196.573 160.289,185.677 160.289,185.677C160.289,185.677 158.612,185.583 157.964,185.525C157.442,185.477 156.823,185.546 156.404,185.325C155.984,185.103 155.596,184.62 155.446,184.195C155.296,183.77 155.299,183.201 155.503,182.772C156.217,181.269 159.729,175.174 159.729,175.174C159.729,175.174 156.758,175.128 155.77,175.085C155.112,175.057 154.303,175.144 153.802,174.916C153.32,174.697 152.923,174.151 152.761,173.718C152.599,173.286 152.629,172.743 152.83,172.322C154.356,169.123 160.252,157.639 161.919,154.522C162.121,154.144 162.487,153.835 162.834,153.619C163.181,153.402 163.592,153.236 164.003,153.223Z" style="fill:rgb(255,230,0);"/>
            </g>
        </g>
    </g>
</svg>
