<?xml version="1.0" encoding="UTF-8" standalone="no"?>
<!DOCTYPE svg PUBLIC "-//W3C//DTD SVG 1.1//EN" "http://www.w3.org/Graphics/SVG/1.1/DTD/svg11.dtd">
<svg width="100%" height="100%" viewBox="0 0 200 200" version="1.1" xmlns="http://www.w3.org/2000/svg" xmlns:xlink="http://www.w3.org/1999/xlink" xml:space="preserve" xmlns:serif="http://www.serif.com/" style="fill-rule:evenodd;clip-rule:evenodd;stroke-linejoin:round;stroke-miterlimit:2;">
    <g transform="matrix(1,0,0,1,-1601.11,-2.13163e-14)">
        <g transform="matrix(1,0,0,1,292.408,-172.397)">
            <rect x="-1057.14" y="-740.46" width="3426.96" height="2296.67"/>
        </g>
        <g id="LightSnow" transform="matrix(1.02577,0,0,1.47613,1579.71,-42.5734)">
            <rect x="20.856" y="28.841" width="194.975" height="135.49" style="fill:none;"/>
            <g transform="matrix(1.01377,0,0,0.704474,13.2273,11.99)">
                <path d="M59.694,92.473C61.932,81.673 72.96,59.49 99.095,61.027C126.898,62.662 135.122,81.502 137.925,91.666C145.07,91.817 157.168,92.955 165.092,101.384C170.31,106.935 174.223,115.371 173.916,128.415C173.622,140.884 162.142,154.978 149.774,158.265C139.904,160.888 121.05,159.556 102.643,159.201C85.773,158.876 69.278,159.681 60.419,158.58C51.826,157.511 42.458,150.083 38.623,144.444C34.632,138.574 33.433,131.966 33.445,125.765C33.467,115.368 36.879,109.208 40.698,104.107C46.576,96.255 54.332,93.556 59.694,92.473ZM69.874,102.7C61.972,103.77 56,104.1 50.666,111.226C48.198,114.523 46.033,119.157 46.019,125.877C46.011,129.547 47.082,133.569 49.445,137.043C51.874,140.617 57.535,145.754 62.972,146.269C70.714,147.002 86.244,146.678 102.331,146.833C119.655,146.999 137.426,147.739 145.951,146.064C153.971,144.488 161.251,134.74 161.429,127.185C161.627,118.772 158.743,114.097 155.377,110.517C147.562,102.203 140.617,103.942 135.232,103.782C133.235,103.722 128.182,103.737 128.182,103.737C128.182,103.737 127.76,100 127.605,98.156C127.605,98.156 124.608,74.614 98.559,73.082C87.533,72.434 80.012,78.319 76.194,84.43C72.048,91.066 72.36,90.836 71.307,93.881C70.333,96.695 70.359,100.1 69.874,102.7Z" style="fill:white;"/>
            </g>
            <g transform="matrix(0.180368,-2.00271e-17,-1.50186e-17,-0.240518,-0.496757,255.671)">
                <path d="M448.033,489.592C448.033,489.592 458.895,505.013 458.895,511.622C458.895,514.746 454.028,517.282 448.033,517.282C442.038,517.282 437.171,514.746 437.171,511.622C437.171,505.013 448.033,489.592 448.033,489.592Z" style="fill:rgb(14,0,255);"/>
            </g>
            <g transform="matrix(0.090184,0.108956,0.298619,-0.120259,-106.293,147.977)">
                <path d="M448.033,489.592C448.033,489.592 458.895,504.99 458.895,511.59C458.895,514.731 454.028,517.282 448.033,517.282C442.038,517.282 437.171,514.731 437.171,511.59C437.171,504.99 448.033,489.592 448.033,489.592Z" style="fill:rgb(14,0,255);"/>
            </g>
            <g transform="matrix(-0.090184,0.108956,0.298619,0.120259,-25.4822,30.2215)">
                <path d="M448.033,489.592C448.033,489.592 458.895,504.99 458.895,511.59C458.895,514.731 454.028,517.282 448.033,517.282C442.038,517.282 437.171,514.731 437.171,511.59C437.171,504.99 448.033,489.592 448.033,489.592Z" style="fill:rgb(14,0,255);"/>
            </g>
            <g transform="matrix(-0.180368,3.17815e-17,6.45738e-17,0.240518,161.125,20.1594)">
                <path d="M448.033,489.592C448.033,489.592 458.895,505.013 458.895,511.622C458.895,514.746 454.028,517.282 448.033,517.282C442.038,517.282 437.171,514.746 437.171,511.622C437.171,505.013 448.033,489.592 448.033,489.592Z" style="fill:rgb(14,0,255);"/>
            </g>
            <g transform="matrix(-0.0901397,-0.108973,-0.298668,0.1202,266.925,127.89)">
                <path d="M448.033,489.592C448.033,489.592 458.895,504.99 458.895,511.59C458.895,514.731 454.028,517.282 448.033,517.282C442.038,517.282 437.171,514.731 437.171,511.59C437.171,504.99 448.033,489.592 448.033,489.592Z" style="fill:rgb(14,0,255);"/>
            </g>
            <g transform="matrix(0.090184,-0.108956,-0.298619,-0.120259,186.11,245.609)">
                <path d="M448.033,489.592C448.033,489.592 458.895,504.99 458.895,511.59C458.895,514.731 454.028,517.282 448.033,517.282C442.038,517.282 437.171,514.731 437.171,511.59C437.171,504.99 448.033,489.592 448.033,489.592Z" style="fill:rgb(14,0,255);"/>
            </g>
            <g transform="matrix(0.287446,0,0,0.200501,-157.445,48.63)">
                <path d="M827.705,439.53L827.89,440.431C828.248,440.486 828.599,440.58 828.937,440.711L829.547,440.024C829.889,440.179 830.215,440.367 830.52,440.585L830.23,441.458C830.512,441.684 830.769,441.941 830.996,442.224L831.868,441.934C832.086,442.239 832.274,442.565 832.43,442.906L831.742,443.517C831.874,443.854 831.968,444.205 832.023,444.563L832.923,444.748C832.96,445.122 832.96,445.498 832.923,445.871L832.023,446.056C831.968,446.414 831.874,446.765 831.742,447.103L832.43,447.713C832.274,448.055 832.086,448.381 831.868,448.686L830.996,448.396C830.769,448.678 830.512,448.935 830.23,449.162L830.52,450.034C830.215,450.252 829.889,450.44 829.547,450.596L828.937,449.908C828.599,450.04 828.248,450.134 827.89,450.189L827.705,451.089C827.332,451.126 826.956,451.126 826.582,451.089L826.397,450.189C826.039,450.134 825.688,450.04 825.351,449.908L824.74,450.596C824.399,450.44 824.073,450.252 823.768,450.034L824.058,449.162C823.775,448.935 823.518,448.678 823.292,448.396L822.419,448.686C822.201,448.381 822.013,448.055 821.858,447.713L822.545,447.103C822.414,446.765 822.32,446.414 822.265,446.056L821.364,445.871C821.328,445.498 821.328,445.122 821.364,444.748L822.265,444.563C822.32,444.205 822.414,443.854 822.545,443.517L821.858,442.906C822.013,442.565 822.201,442.239 822.419,441.934L823.292,442.224C823.518,441.941 823.775,441.684 824.058,441.458L823.768,440.585C824.073,440.367 824.399,440.179 824.74,440.024L825.351,440.711C825.688,440.58 826.039,440.486 826.397,440.431L826.582,439.53C826.956,439.494 827.332,439.494 827.705,439.53Z" style="fill:rgb(13,0,255);"/>
            </g>
            <g transform="matrix(0.137289,-1.52439e-17,-1.14316e-17,-0.183073,47.2,232.682)">
                <path d="M448.033,489.592C448.033,489.592 458.895,505.013 458.895,511.622C458.895,514.746 454.028,517.282 448.033,517.282C442.038,517.282 437.171,514.746 437.171,511.622C437.171,505.013 448.033,489.592 448.033,489.592Z" style="fill:rgb(14,0,255);"/>
            </g>
            <g transform="matrix(0.0686447,0.082933,0.227298,-0.0915367,-33.3281,150.709)">
                <path d="M448.033,489.592C448.033,489.592 458.895,504.99 458.895,511.59C458.895,514.731 454.028,517.282 448.033,517.282C442.038,517.282 437.171,514.731 437.171,511.59C437.171,504.99 448.033,489.592 448.033,489.592Z" style="fill:rgb(14,0,255);"/>
            </g>
            <g transform="matrix(-0.0686447,0.082933,0.227298,0.0915367,28.182,61.0783)">
                <path d="M448.033,489.592C448.033,489.592 458.895,504.99 458.895,511.59C458.895,514.731 454.028,517.282 448.033,517.282C442.038,517.282 437.171,514.731 437.171,511.59C437.171,504.99 448.033,489.592 448.033,489.592Z" style="fill:rgb(14,0,255);"/>
            </g>
            <g transform="matrix(-0.137289,2.41909e-17,4.91511e-17,0.183073,170.22,53.4194)">
                <path d="M448.033,489.592C448.033,489.592 458.895,505.013 458.895,511.622C458.895,514.746 454.028,517.282 448.033,517.282C442.038,517.282 437.171,514.746 437.171,511.622C437.171,505.013 448.033,489.592 448.033,489.592Z" style="fill:rgb(14,0,255);"/>
            </g>
            <g transform="matrix(-0.068611,-0.0829466,-0.227335,0.0914918,250.752,135.42)">
                <path d="M448.033,489.592C448.033,489.592 458.895,504.99 458.895,511.59C458.895,514.731 454.028,517.282 448.033,517.282C442.038,517.282 437.171,514.731 437.171,511.59C437.171,504.99 448.033,489.592 448.033,489.592Z" style="fill:rgb(14,0,255);"/>
            </g>
            <g transform="matrix(0.0686447,-0.082933,-0.227298,-0.0915367,189.238,225.023)">
                <path d="M448.033,489.592C448.033,489.592 458.895,504.99 458.895,511.59C458.895,514.731 454.028,517.282 448.033,517.282C442.038,517.282 437.171,514.731 437.171,511.59C437.171,504.99 448.033,489.592 448.033,489.592Z" style="fill:rgb(14,0,255);"/>
            </g>
            <g transform="matrix(0.218793,0,0,0.152614,-72.2632,75.0902)">
                <path d="M827.705,439.53L827.89,440.431C828.248,440.486 828.599,440.58 828.937,440.711L829.547,440.024C829.889,440.179 830.215,440.367 830.52,440.585L830.23,441.458C830.512,441.684 830.769,441.941 830.996,442.224L831.868,441.934C832.086,442.239 832.274,442.565 832.43,442.906L831.742,443.517C831.874,443.854 831.968,444.205 832.023,444.563L832.923,444.748C832.96,445.122 832.96,445.498 832.923,445.871L832.023,446.056C831.968,446.414 831.874,446.765 831.742,447.103L832.43,447.713C832.274,448.055 832.086,448.381 831.868,448.686L830.996,448.396C830.769,448.678 830.512,448.935 830.23,449.162L830.52,450.034C830.215,450.252 829.889,450.44 829.547,450.596L828.937,449.908C828.599,450.04 828.248,450.134 827.89,450.189L827.705,451.089C827.332,451.126 826.956,451.126 826.582,451.089L826.397,450.189C826.039,450.134 825.688,450.04 825.351,449.908L824.74,450.596C824.399,450.44 824.073,450.252 823.768,450.034L824.058,449.162C823.775,448.935 823.518,448.678 823.292,448.396L822.419,448.686C822.201,448.381 822.013,448.055 821.858,447.713L822.545,447.103C822.414,446.765 822.32,446.414 822.265,446.056L821.364,445.871C821.328,445.498 821.328,445.122 821.364,444.748L822.265,444.563C822.32,444.205 822.414,443.854 822.545,443.517L821.858,442.906C822.013,442.565 822.201,442.239 822.419,441.934L823.292,442.224C823.518,441.941 823.775,441.684 824.058,441.458L823.768,440.585C824.073,440.367 824.399,440.179 824.74,440.024L825.351,440.711C825.688,440.58 826.039,440.486 826.397,440.431L826.582,439.53C826.956,439.494 827.332,439.494 827.705,439.53Z" style="fill:rgb(13,0,255);"/>
            </g>
            <g transform="matrix(0.137289,-1.52439e-17,-1.14316e-17,-0.183073,71.5318,225.518)">
                <path d="M448.033,489.592C448.033,489.592 458.895,505.013 458.895,511.622C458.895,514.746 454.028,517.282 448.033,517.282C442.038,517.282 437.171,514.746 437.171,511.622C437.171,505.013 448.033,489.592 448.033,489.592Z" style="fill:rgb(14,0,255);"/>
            </g>
            <g transform="matrix(0.0686447,0.082933,0.227298,-0.0915367,-8.9963,143.545)">
                <path d="M448.033,489.592C448.033,489.592 458.895,504.99 458.895,511.59C458.895,514.731 454.028,517.282 448.033,517.282C442.038,517.282 437.171,514.731 437.171,511.59C437.171,504.99 448.033,489.592 448.033,489.592Z" style="fill:rgb(14,0,255);"/>
            </g>
            <g transform="matrix(-0.0686447,0.082933,0.227298,0.0915367,52.5138,53.9142)">
                <path d="M448.033,489.592C448.033,489.592 458.895,504.99 458.895,511.59C458.895,514.731 454.028,517.282 448.033,517.282C442.038,517.282 437.171,514.731 437.171,511.59C437.171,504.99 448.033,489.592 448.033,489.592Z" style="fill:rgb(14,0,255);"/>
            </g>
            <g transform="matrix(-0.137289,2.41909e-17,4.91511e-17,0.183073,194.552,46.2554)">
                <path d="M448.033,489.592C448.033,489.592 458.895,505.013 458.895,511.622C458.895,514.746 454.028,517.282 448.033,517.282C442.038,517.282 437.171,514.746 437.171,511.622C437.171,505.013 448.033,489.592 448.033,489.592Z" style="fill:rgb(14,0,255);"/>
            </g>
            <g transform="matrix(-0.068611,-0.0829466,-0.227335,0.0914918,275.083,128.256)">
                <path d="M448.033,489.592C448.033,489.592 458.895,504.99 458.895,511.59C458.895,514.731 454.028,517.282 448.033,517.282C442.038,517.282 437.171,514.731 437.171,511.59C437.171,504.99 448.033,489.592 448.033,489.592Z" style="fill:rgb(14,0,255);"/>
            </g>
            <g transform="matrix(0.0686447,-0.082933,-0.227298,-0.0915367,213.57,217.859)">
                <path d="M448.033,489.592C448.033,489.592 458.895,504.99 458.895,511.59C458.895,514.731 454.028,517.282 448.033,517.282C442.038,517.282 437.171,514.731 437.171,511.59C437.171,504.99 448.033,489.592 448.033,489.592Z" style="fill:rgb(14,0,255);"/>
            </g>
            <g transform="matrix(0.218793,0,0,0.152614,-47.9314,67.9261)">
                <path d="M827.705,439.53L827.89,440.431C828.248,440.486 828.599,440.58 828.937,440.711L829.547,440.024C829.889,440.179 830.215,440.367 830.52,440.585L830.23,441.458C830.512,441.684 830.769,441.941 830.996,442.224L831.868,441.934C832.086,442.239 832.274,442.565 832.43,442.906L831.742,443.517C831.874,443.854 831.968,444.205 832.023,444.563L832.923,444.748C832.96,445.122 832.96,445.498 832.923,445.871L832.023,446.056C831.968,446.414 831.874,446.765 831.742,447.103L832.43,447.713C832.274,448.055 832.086,448.381 831.868,448.686L830.996,448.396C830.769,448.678 830.512,448.935 830.23,449.162L830.52,450.034C830.215,450.252 829.889,450.44 829.547,450.596L828.937,449.908C828.599,450.04 828.248,450.134 827.89,450.189L827.705,451.089C827.332,451.126 826.956,451.126 826.582,451.089L826.397,450.189C826.039,450.134 825.688,450.04 825.351,449.908L824.74,450.596C824.399,450.44 824.073,450.252 823.768,450.034L824.058,449.162C823.775,448.935 823.518,448.678 823.292,448.396L822.419,448.686C822.201,448.381 822.013,448.055 821.858,447.713L822.545,447.103C822.414,446.765 822.32,446.414 822.265,446.056L821.364,445.871C821.328,445.498 821.328,445.122 821.364,444.748L822.265,444.563C822.32,444.205 822.414,443.854 822.545,443.517L821.858,442.906C822.013,442.565 822.201,442.239 822.419,441.934L823.292,442.224C823.518,441.941 823.775,441.684 824.058,441.458L823.768,440.585C824.073,440.367 824.399,440.179 824.74,440.024L825.351,440.711C825.688,440.58 826.039,440.486 826.397,440.431L826.582,439.53C826.956,439.494 827.332,439.494 827.705,439.53Z" style="fill:rgb(13,0,255);"/>
            </g>
            <g transform="matrix(0.137289,-1.52439e-17,-1.14316e-17,-0.183073,94.9338,230.587)">
                <path d="M448.033,489.592C448.033,489.592 458.895,505.013 458.895,511.622C458.895,514.746 454.028,517.282 448.033,517.282C442.038,517.282 437.171,514.746 437.171,511.622C437.171,505.013 448.033,489.592 448.033,489.592Z" style="fill:rgb(14,0,255);"/>
            </g>
            <g transform="matrix(0.0686447,0.082933,0.227298,-0.0915367,14.4057,148.615)">
                <path d="M448.033,489.592C448.033,489.592 458.895,504.99 458.895,511.59C458.895,514.731 454.028,517.282 448.033,517.282C442.038,517.282 437.171,514.731 437.171,511.59C437.171,504.99 448.033,489.592 448.033,489.592Z" style="fill:rgb(14,0,255);"/>
            </g>
            <g transform="matrix(-0.0686447,0.082933,0.227298,0.0915367,75.9158,58.9836)">
                <path d="M448.033,489.592C448.033,489.592 458.895,504.99 458.895,511.59C458.895,514.731 454.028,517.282 448.033,517.282C442.038,517.282 437.171,514.731 437.171,511.59C437.171,504.99 448.033,489.592 448.033,489.592Z" style="fill:rgb(14,0,255);"/>
            </g>
            <g transform="matrix(-0.137289,2.41909e-17,4.91511e-17,0.183073,217.954,51.3248)">
                <path d="M448.033,489.592C448.033,489.592 458.895,505.013 458.895,511.622C458.895,514.746 454.028,517.282 448.033,517.282C442.038,517.282 437.171,514.746 437.171,511.622C437.171,505.013 448.033,489.592 448.033,489.592Z" style="fill:rgb(14,0,255);"/>
            </g>
            <g transform="matrix(-0.068611,-0.0829466,-0.227335,0.0914918,298.485,133.325)">
                <path d="M448.033,489.592C448.033,489.592 458.895,504.99 458.895,511.59C458.895,514.731 454.028,517.282 448.033,517.282C442.038,517.282 437.171,514.731 437.171,511.59C437.171,504.99 448.033,489.592 448.033,489.592Z" style="fill:rgb(14,0,255);"/>
            </g>
            <g transform="matrix(0.0686447,-0.082933,-0.227298,-0.0915367,236.972,222.928)">
                <path d="M448.033,489.592C448.033,489.592 458.895,504.99 458.895,511.59C458.895,514.731 454.028,517.282 448.033,517.282C442.038,517.282 437.171,514.731 437.171,511.59C437.171,504.99 448.033,489.592 448.033,489.592Z" style="fill:rgb(14,0,255);"/>
            </g>
            <g transform="matrix(0.218793,0,0,0.152614,-24.5294,72.9955)">
                <path d="M827.705,439.53L827.89,440.431C828.248,440.486 828.599,440.58 828.937,440.711L829.547,440.024C829.889,440.179 830.215,440.367 830.52,440.585L830.23,441.458C830.512,441.684 830.769,441.941 830.996,442.224L831.868,441.934C832.086,442.239 832.274,442.565 832.43,442.906L831.742,443.517C831.874,443.854 831.968,444.205 832.023,444.563L832.923,444.748C832.96,445.122 832.96,445.498 832.923,445.871L832.023,446.056C831.968,446.414 831.874,446.765 831.742,447.103L832.43,447.713C832.274,448.055 832.086,448.381 831.868,448.686L830.996,448.396C830.769,448.678 830.512,448.935 830.23,449.162L830.52,450.034C830.215,450.252 829.889,450.44 829.547,450.596L828.937,449.908C828.599,450.04 828.248,450.134 827.89,450.189L827.705,451.089C827.332,451.126 826.956,451.126 826.582,451.089L826.397,450.189C826.039,450.134 825.688,450.04 825.351,449.908L824.74,450.596C824.399,450.44 824.073,450.252 823.768,450.034L824.058,449.162C823.775,448.935 823.518,448.678 823.292,448.396L822.419,448.686C822.201,448.381 822.013,448.055 821.858,447.713L822.545,447.103C822.414,446.765 822.32,446.414 822.265,446.056L821.364,445.871C821.328,445.498 821.328,445.122 821.364,444.748L822.265,444.563C822.32,444.205 822.414,443.854 822.545,443.517L821.858,442.906C822.013,442.565 822.201,442.239 822.419,441.934L823.292,442.224C823.518,441.941 823.775,441.684 824.058,441.458L823.768,440.585C824.073,440.367 824.399,440.179 824.74,440.024L825.351,440.711C825.688,440.58 826.039,440.486 826.397,440.431L826.582,439.53C826.956,439.494 827.332,439.494 827.705,439.53Z" style="fill:rgb(13,0,255);"/>
            </g>
        </g>
    </g>
</svg>
