<?xml version="1.0" encoding="UTF-8" standalone="no"?>
<!DOCTYPE svg PUBLIC "-//W3C//DTD SVG 1.1//EN" "http://www.w3.org/Graphics/SVG/1.1/DTD/svg11.dtd">
<svg width="100%" height="100%" viewBox="0 0 108 102" version="1.1" xmlns="http://www.w3.org/2000/svg" xmlns:xlink="http://www.w3.org/1999/xlink" xml:space="preserve" xmlns:serif="http://www.serif.com/" style="fill-rule:evenodd;clip-rule:evenodd;stroke-linejoin:round;stroke-miterlimit:2;">
    <g transform="matrix(1,0,0,1,-591.892,0)">
        <g id="MoreCloud" transform="matrix(0.844314,0,0,1,336.433,182.505)">
            <rect x="302.564" y="-182.505" width="127.706" height="101.228" style="fill:none;"/>
            <g transform="matrix(1.18439,0,0,1,172.486,-220.268)">
                <path d="M130.47,60.19L126.864,64.486C126.864,64.486 122.959,61.922 120.942,60.948C118.963,59.991 114.764,58.64 114.764,58.64C114.764,58.64 116.691,55.11 119.503,52.974C120.925,51.893 124.338,48.912 129.255,46.964C133.167,45.414 138.085,44.709 143.315,44.767C164.223,44.997 177.417,62.522 178.248,71.897C188.438,70.113 209.497,76.225 209.11,101.03C208.94,111.886 205.643,119.335 199.157,125.004C194.294,129.254 189.423,130.789 185.683,131.538C183.628,131.949 179.594,131.99 179.594,131.99C179.594,131.99 180.06,128.038 180.038,126.075C180.016,124.112 179.46,120.213 179.46,120.213C179.46,120.213 184.268,119.708 186.377,118.637C188.672,117.472 191.703,115.701 193.231,113.223C195.018,110.323 197.713,107.321 197.102,101.239C196.476,95.009 192.986,90.539 190.369,87.773C187.598,84.843 184.466,83.99 181.688,83.462C178.366,82.831 176.672,82.92 174.462,82.91C172.444,82.9 169.981,83.301 168.427,83.397C167.271,83.469 167.459,82.615 167.309,82.052C167.005,80.905 166.736,77.8 166.599,76.515C166.599,76.515 166.065,70.032 160.291,64.124C157.58,61.35 154.248,58.359 148.721,56.882C143.581,55.508 136.584,55.388 130.47,60.19Z" style="fill:white;fill-opacity:0.96;"/>
            </g>
        </g>
    </g>
</svg>
