<?xml version="1.0" encoding="UTF-8" standalone="no"?>
<!DOCTYPE svg PUBLIC "-//W3C//DTD SVG 1.1//EN" "http://www.w3.org/Graphics/SVG/1.1/DTD/svg11.dtd">
<svg width="100%" height="100%" viewBox="0 0 105 67" version="1.1" xmlns="http://www.w3.org/2000/svg" xmlns:xlink="http://www.w3.org/1999/xlink" xml:space="preserve" xmlns:serif="http://www.serif.com/" style="fill-rule:evenodd;clip-rule:evenodd;stroke-linecap:round;stroke-linejoin:round;stroke-miterlimit:1.5;">
    <g transform="matrix(1,0,0,1,-813.319,-370.267)">
        <g id="Rain" transform="matrix(1,0,0,1,429.158,-66.8033)">
            <rect x="384.161" y="437.07" width="104.692" height="66.733" style="fill:none;"/>
            <g transform="matrix(0.972611,-0.00200626,0.168853,0.693309,-64.0666,149.005)">
                <path d="M409.494,453.921L395.016,497.562" style="fill:none;stroke:rgb(13,0,255);stroke-width:7.06px;"/>
            </g>
            <g transform="matrix(0.972611,-0.00200626,0.168853,0.693309,-29.5686,149.005)">
                <path d="M409.494,453.921L395.016,497.562" style="fill:none;stroke:rgb(13,0,255);stroke-width:7.06px;"/>
            </g>
            <g transform="matrix(0.972611,-0.00200626,0.168853,0.693309,4.61403,149.005)">
                <path d="M409.494,453.921L395.016,497.562" style="fill:none;stroke:rgb(13,0,255);stroke-width:7.06px;"/>
            </g>
            <g transform="matrix(0.972611,-0.00200626,0.168853,0.693309,-77.7625,133.862)">
                <path d="M409.494,453.921L395.016,497.562" style="fill:none;stroke:rgb(13,0,255);stroke-width:7.06px;"/>
            </g>
            <g transform="matrix(0.972611,-0.00200626,0.168853,0.693309,-43.3165,133.862)">
                <path d="M409.494,453.921L395.016,497.562" style="fill:none;stroke:rgb(13,0,255);stroke-width:7.06px;"/>
            </g>
            <g transform="matrix(0.972611,-0.00200626,0.168853,0.693309,-9.08187,133.862)">
                <path d="M409.494,453.921L395.016,497.562" style="fill:none;stroke:rgb(13,0,255);stroke-width:7.06px;"/>
            </g>
        </g>
    </g>
</svg>
