<?xml version="1.0" encoding="UTF-8" standalone="no"?>
<!DOCTYPE svg PUBLIC "-//W3C//DTD SVG 1.1//EN" "http://www.w3.org/Graphics/SVG/1.1/DTD/svg11.dtd">
<svg width="100%" height="100%" viewBox="0 0 70 76" version="1.1" xmlns="http://www.w3.org/2000/svg" xmlns:xlink="http://www.w3.org/1999/xlink" xml:space="preserve" xmlns:serif="http://www.serif.com/" style="fill-rule:evenodd;clip-rule:evenodd;stroke-linejoin:round;stroke-miterlimit:2;">
    <g transform="matrix(1,0,0,1,-1065.82,-500.82)">
        <g id="Snowflake" transform="matrix(0.87923,0,0,0.957209,338.485,117.156)">
            <rect x="827.24" y="400.815" width="79.372" height="78.805" style="fill:none;"/>
            <g transform="matrix(0.713676,-1.04351e-16,-5.94254e-17,-1.25321,546.338,1053.21)">
                <path d="M448.033,489.592C448.033,489.592 458.895,504.998 458.895,511.6C458.895,514.736 454.028,517.282 448.033,517.282C442.038,517.282 437.171,514.736 437.171,511.6C437.171,504.998 448.033,489.592 448.033,489.592Z" style="fill:rgb(14,0,255);"/>
            </g>
            <g transform="matrix(0.356838,0.567711,1.18157,-0.626606,127.726,492.074)">
                <path d="M448.033,489.592C448.033,489.592 458.895,504.998 458.895,511.6C458.895,514.736 454.028,517.282 448.033,517.282C442.038,517.282 437.171,514.736 437.171,511.6C437.171,504.998 448.033,489.592 448.033,489.592Z" style="fill:rgb(14,0,255);"/>
            </g>
            <g transform="matrix(-0.356838,0.567711,1.18157,0.626606,447.476,-121.488)">
                <path d="M448.033,489.592C448.033,489.592 458.895,504.998 458.895,511.6C458.895,514.736 454.028,517.282 448.033,517.282C442.038,517.282 437.171,514.736 437.171,511.6C437.171,504.998 448.033,489.592 448.033,489.592Z" style="fill:rgb(14,0,255);"/>
            </g>
            <g transform="matrix(-0.713676,1.65596e-16,2.55504e-16,1.25321,1185.84,-173.916)">
                <path d="M448.033,489.592C448.033,489.592 458.895,504.998 458.895,511.6C458.895,514.736 454.028,517.282 448.033,517.282C442.038,517.282 437.171,514.736 437.171,511.6C437.171,504.998 448.033,489.592 448.033,489.592Z" style="fill:rgb(14,0,255);"/>
            </g>
            <g transform="matrix(-0.356663,-0.567803,-1.18176,0.626299,1604.47,387.41)">
                <path d="M448.033,489.592C448.033,489.592 458.895,504.998 458.895,511.6C458.895,514.736 454.028,517.282 448.033,517.282C442.038,517.282 437.171,514.736 437.171,511.6C437.171,504.998 448.033,489.592 448.033,489.592Z" style="fill:rgb(14,0,255);"/>
            </g>
            <g transform="matrix(0.356838,-0.567711,-1.18157,-0.626606,1284.7,1000.78)">
                <path d="M448.033,489.592C448.033,489.592 458.895,504.998 458.895,511.6C458.895,514.736 454.028,517.282 448.033,517.282C442.038,517.282 437.171,514.736 437.171,511.6C437.171,504.998 448.033,489.592 448.033,489.592Z" style="fill:rgb(14,0,255);"/>
            </g>
            <g transform="matrix(1.13736,0,0,1.0447,-74.672,-25.571)">
                <path d="M827.705,439.53L827.89,440.431C828.248,440.486 828.599,440.58 828.937,440.711L829.547,440.024C829.889,440.179 830.215,440.367 830.52,440.585L830.23,441.458C830.512,441.684 830.769,441.941 830.996,442.224L831.868,441.934C832.086,442.239 832.274,442.565 832.43,442.906L831.742,443.517C831.874,443.854 831.968,444.205 832.023,444.563L832.923,444.748C832.96,445.122 832.96,445.498 832.923,445.871L832.023,446.056C831.968,446.414 831.874,446.765 831.742,447.103L832.43,447.713C832.274,448.055 832.086,448.381 831.868,448.686L830.996,448.396C830.769,448.678 830.512,448.935 830.23,449.162L830.52,450.034C830.215,450.252 829.889,450.44 829.547,450.596L828.937,449.908C828.599,450.04 828.248,450.134 827.89,450.189L827.705,451.089C827.332,451.126 826.956,451.126 826.582,451.089L826.397,450.189C826.039,450.134 825.688,450.04 825.351,449.908L824.74,450.596C824.399,450.44 824.073,450.252 823.768,450.034L824.058,449.162C823.775,448.935 823.518,448.678 823.292,448.396L822.419,448.686C822.201,448.381 822.013,448.055 821.858,447.713L822.545,447.103C822.414,446.765 822.32,446.414 822.265,446.056L821.364,445.871C821.328,445.498 821.328,445.122 821.364,444.748L822.265,444.563C822.32,444.205 822.414,443.854 822.545,443.517L821.858,442.906C822.013,442.565 822.201,442.239 822.419,441.934L823.292,442.224C823.518,441.941 823.775,441.684 824.058,441.458L823.768,440.585C824.073,440.367 824.399,440.179 824.74,440.024L825.351,440.711C825.688,440.58 826.039,440.486 826.397,440.431L826.582,439.53C826.956,439.494 827.332,439.494 827.705,439.53Z" style="fill:rgb(13,0,255);"/>
            </g>
        </g>
    </g>
</svg>
