<?xml version="1.0" encoding="UTF-8" standalone="no"?>
<!DOCTYPE svg PUBLIC "-//W3C//DTD SVG 1.1//EN" "http://www.w3.org/Graphics/SVG/1.1/DTD/svg11.dtd">
<svg width="100%" height="100%" viewBox="0 0 188 188" version="1.1" xmlns="http://www.w3.org/2000/svg" xmlns:xlink="http://www.w3.org/1999/xlink" xml:space="preserve" xmlns:serif="http://www.serif.com/" style="fill-rule:evenodd;clip-rule:evenodd;stroke-linecap:round;stroke-linejoin:round;stroke-miterlimit:1.5;">
    <g transform="matrix(1,0,0,1,-749.715,-57.1157)">
        <g id="Sun" transform="matrix(0.901867,0,0,1,649.825,125.882)">
            <rect x="110.76" y="-68.766" width="207.368" height="187.4" style="fill:none;"/>
            <g transform="matrix(1.51208,-0.000682991,0.000757308,1.36369,-274.728,-116.927)">
                <circle cx="321.82" cy="103.26" r="34.642" style="fill:rgb(255,247,0);"/>
            </g>
            <g transform="matrix(1.10881,0,0,0.60005,-242.655,-61.6824)">
                <path d="M409.836,13.742C409.836,13.72 410.009,33.49 410.009,33.49" style="fill:none;stroke:rgb(255,247,0);stroke-width:16.17px;"/>
            </g>
            <g transform="matrix(0.959989,0.500421,-0.332951,0.519512,-134.278,-255.404)">
                <path d="M409.836,13.742C409.836,13.72 410.009,33.49 410.009,33.49" style="fill:white;stroke:rgb(255,247,0);stroke-width:16.17px;"/>
            </g>
            <g transform="matrix(0.554406,0.866025,-0.576203,0.300025,66.6151,-374.085)">
                <path d="M409.836,13.742C409.836,13.72 410.009,33.49 410.009,33.49" style="fill:none;stroke:rgb(255,247,0);stroke-width:16.17px;"/>
            </g>
            <g transform="matrix(1.23103e-16,1,-0.665342,1.11022e-16,306.605,-386.34)">
                <path d="M409.836,13.742C409.836,13.72 410.009,33.49 410.009,33.49" style="fill:none;stroke:rgb(255,247,0);stroke-width:16.17px;"/>
            </g>
            <g transform="matrix(-0.554406,0.866025,-0.576203,-0.300025,521.237,-288.734)">
                <path d="M409.836,13.742C409.836,13.72 410.009,33.49 410.009,33.49" style="fill:none;stroke:rgb(255,247,0);stroke-width:16.17px;"/>
            </g>
            <g transform="matrix(-0.960259,0.5,-0.332671,-0.519658,653.001,-107.42)">
                <path d="M409.836,13.742C409.836,13.72 410.009,33.49 410.009,33.49" style="fill:none;stroke:rgb(255,247,0);stroke-width:16.17px;"/>
            </g>
            <g transform="matrix(-1.10881,1.11022e-16,-1.84654e-16,-0.60005,666.589,109.019)">
                <path d="M409.836,13.742C409.836,13.72 410.009,33.49 410.009,33.49" style="fill:none;stroke:rgb(255,247,0);stroke-width:16.17px;"/>
            </g>
            <g transform="matrix(-0.960259,-0.5,0.332671,-0.519658,558.363,302.589)">
                <path d="M409.836,13.742C409.836,13.72 410.009,33.49 410.009,33.49" style="fill:none;stroke:rgb(255,247,0);stroke-width:16.17px;"/>
            </g>
            <g transform="matrix(-0.554406,-0.866025,0.576203,-0.300025,357.32,421.422)">
                <path d="M409.836,13.742C409.836,13.72 410.009,33.49 410.009,33.49" style="fill:none;stroke:rgb(255,247,0);stroke-width:16.17px;"/>
            </g>
            <g transform="matrix(1.23103e-16,-1,0.665342,-1.11022e-16,117.329,433.677)">
                <path d="M409.836,13.742C409.836,13.72 410.009,33.49 410.009,33.49" style="fill:none;stroke:rgb(255,247,0);stroke-width:16.17px;"/>
            </g>
            <g transform="matrix(0.554406,-0.866025,0.576203,0.300025,-97.3026,336.071)">
                <path d="M409.836,13.742C409.836,13.72 410.009,33.49 410.009,33.49" style="fill:none;stroke:rgb(255,247,0);stroke-width:16.17px;"/>
            </g>
            <g transform="matrix(0.960259,-0.5,0.332671,0.519658,-229.066,154.757)">
                <path d="M409.836,13.742C409.836,13.72 410.009,33.49 410.009,33.49" style="fill:none;stroke:rgb(255,247,0);stroke-width:16.17px;"/>
            </g>
        </g>
    </g>
</svg>
