<?xml version="1.0" encoding="UTF-8" standalone="no"?>
<!DOCTYPE svg PUBLIC "-//W3C//DTD SVG 1.1//EN" "http://www.w3.org/Graphics/SVG/1.1/DTD/svg11.dtd">
<svg width="100%" height="100%" viewBox="0 0 200 200" version="1.1" xmlns="http://www.w3.org/2000/svg" xmlns:xlink="http://www.w3.org/1999/xlink" xml:space="preserve" xmlns:serif="http://www.serif.com/" style="fill-rule:evenodd;clip-rule:evenodd;stroke-linejoin:round;stroke-miterlimit:2;">
    <g transform="matrix(1,0,0,1,-1.42109e-14,-1.43808)">
        <g transform="matrix(1,0,0,1,76.731,535.999)">
            <rect x="-1057.14" y="-740.46" width="3426.96" height="2296.67"/>
        </g>
        <g id="Sun" transform="matrix(0.964471,0,0,1.06723,-106.825,74.8273)">
            <rect x="110.76" y="-68.766" width="207.368" height="187.4" style="fill:none;"/>
            <g transform="matrix(1.49651,-0.000677344,0.000749513,1.35242,-267.242,-114.499)">
                <circle cx="321.82" cy="103.26" r="34.642" style="fill:rgb(255,247,0);"/>
            </g>
            <g transform="matrix(1.03684,0,0,0.937002,110.582,-70.1131)">
                <path d="M93.516,33.513L93.477,17.513C93.477,17.513 93.509,15.425 93.949,14.513C94.43,13.513 95.422,12.135 96.367,11.513C97.542,10.739 98.862,10.307 100.162,10.335C101.461,10.363 103.121,10.986 104.162,11.682C105.163,12.352 105.956,13.541 106.407,14.513C106.832,15.431 106.867,17.513 106.867,17.513L106.862,33.513C106.862,33.513 106.8,34.942 106.252,36.214C105.824,37.209 104.968,38.031 104.478,38.513C103.384,39.587 101.604,40.098 100.162,40.098C98.719,40.098 96.916,39.597 95.823,38.513C95.336,38.031 94.434,37.092 94.021,36.097C93.494,34.825 93.516,33.513 93.516,33.513Z" style="fill:rgb(255,255,0);"/>
            </g>
            <g transform="matrix(0.897928,-0.468501,0.518419,0.811468,71.9092,-10.4484)">
                <path d="M93.516,33.513L93.477,17.513C93.477,17.513 93.509,15.425 93.949,14.513C94.43,13.513 95.422,12.135 96.367,11.513C97.542,10.739 98.862,10.307 100.162,10.335C101.461,10.363 103.121,10.986 104.162,11.682C105.163,12.352 105.956,13.541 106.407,14.513C106.832,15.431 106.867,17.513 106.867,17.513L106.862,33.513C106.862,33.513 106.8,34.942 106.252,36.214C105.824,37.209 104.968,38.031 104.478,38.513C103.384,39.587 101.604,40.098 100.162,40.098C98.719,40.098 96.916,39.597 95.823,38.513C95.336,38.031 94.434,37.092 94.021,36.097C93.494,34.825 93.516,33.513 93.516,33.513Z" style="fill:rgb(255,255,0);"/>
            </g>
            <g transform="matrix(0.518419,-0.811468,0.897928,0.468501,71.4288,58.697)">
                <path d="M93.516,33.513L93.477,17.513C93.477,17.513 93.509,15.425 93.949,14.513C94.43,13.513 95.422,12.135 96.367,11.513C97.542,10.739 98.862,10.307 100.162,10.335C101.461,10.363 103.121,10.986 104.162,11.682C105.163,12.352 105.956,13.541 106.407,14.513C106.832,15.431 106.867,17.513 106.867,17.513L106.862,33.513C106.862,33.513 106.8,34.942 106.252,36.214C105.824,37.209 104.968,38.031 104.478,38.513C103.384,39.587 101.604,40.098 100.162,40.098C98.719,40.098 96.916,39.597 95.823,38.513C95.336,38.031 94.434,37.092 94.021,36.097C93.494,34.825 93.516,33.513 93.516,33.513Z" style="fill:rgb(255,255,0);"/>
            </g>
            <g transform="matrix(-5.55112e-17,-0.937002,1.03684,2.77556e-16,109.269,118.796)">
                <path d="M93.516,33.513L93.477,17.513C93.477,17.513 93.509,15.425 93.949,14.513C94.43,13.513 95.422,12.135 96.367,11.513C97.542,10.739 98.862,10.307 100.162,10.335C101.461,10.363 103.121,10.986 104.162,11.682C105.163,12.352 105.956,13.541 106.407,14.513C106.832,15.431 106.867,17.513 106.867,17.513L106.862,33.513C106.862,33.513 106.8,34.942 106.252,36.214C105.824,37.209 104.968,38.031 104.478,38.513C103.384,39.587 101.604,40.098 100.162,40.098C98.719,40.098 96.916,39.597 95.823,38.513C95.336,38.031 94.434,37.092 94.021,36.097C93.494,34.825 93.516,33.513 93.516,33.513Z" style="fill:rgb(255,255,0);"/>
            </g>
            <g transform="matrix(-0.518419,-0.811468,0.897928,-0.468501,175.291,153.744)">
                <path d="M93.516,33.513L93.477,17.513C93.477,17.513 93.509,15.425 93.949,14.513C94.43,13.513 95.422,12.135 96.367,11.513C97.542,10.739 98.862,10.307 100.162,10.335C101.461,10.363 103.121,10.986 104.162,11.682C105.163,12.352 105.956,13.541 106.407,14.513C106.832,15.431 106.867,17.513 106.867,17.513L106.862,33.513C106.862,33.513 106.8,34.942 106.252,36.214C105.824,37.209 104.968,38.031 104.478,38.513C103.384,39.587 101.604,40.098 100.162,40.098C98.719,40.098 96.916,39.597 95.823,38.513C95.336,38.031 94.434,37.092 94.021,36.097C93.494,34.825 93.516,33.513 93.516,33.513Z" style="fill:rgb(255,255,0);"/>
            </g>
            <g transform="matrix(-0.897928,-0.468501,0.518419,-0.811468,251.804,154.178)">
                <path d="M93.516,33.513L93.477,17.513C93.477,17.513 93.509,15.425 93.949,14.513C94.43,13.513 95.422,12.135 96.367,11.513C97.542,10.739 98.862,10.307 100.162,10.335C101.461,10.363 103.121,10.986 104.162,11.682C105.163,12.352 105.956,13.541 106.407,14.513C106.832,15.431 106.867,17.513 106.867,17.513L106.862,33.513C106.862,33.513 106.8,34.942 106.252,36.214C105.824,37.209 104.968,38.031 104.478,38.513C103.384,39.587 101.604,40.098 100.162,40.098C98.719,40.098 96.916,39.597 95.823,38.513C95.336,38.031 94.434,37.092 94.021,36.097C93.494,34.825 93.516,33.513 93.516,33.513Z" style="fill:rgb(255,255,0);"/>
            </g>
            <g transform="matrix(-1.03684,0,5.55112e-17,-0.937002,318.306,119.982)">
                <path d="M93.516,33.513L93.477,17.513C93.477,17.513 93.509,15.425 93.949,14.513C94.43,13.513 95.422,12.135 96.367,11.513C97.542,10.739 98.862,10.307 100.162,10.335C101.461,10.363 103.121,10.986 104.162,11.682C105.163,12.352 105.956,13.541 106.407,14.513C106.832,15.431 106.867,17.513 106.867,17.513L106.862,33.513C106.862,33.513 106.8,34.942 106.252,36.214C105.824,37.209 104.968,38.031 104.478,38.513C103.384,39.587 101.604,40.098 100.162,40.098C98.719,40.098 96.916,39.597 95.823,38.513C95.336,38.031 94.434,37.092 94.021,36.097C93.494,34.825 93.516,33.513 93.516,33.513Z" style="fill:rgb(255,255,0);"/>
            </g>
            <g transform="matrix(-0.897928,0.468501,-0.518419,-0.811468,356.978,60.3171)">
                <path d="M93.516,33.513L93.477,17.513C93.477,17.513 93.509,15.425 93.949,14.513C94.43,13.513 95.422,12.135 96.367,11.513C97.542,10.739 98.862,10.307 100.162,10.335C101.461,10.363 103.121,10.986 104.162,11.682C105.163,12.352 105.956,13.541 106.407,14.513C106.832,15.431 106.867,17.513 106.867,17.513L106.862,33.513C106.862,33.513 106.8,34.942 106.252,36.214C105.824,37.209 104.968,38.031 104.478,38.513C103.384,39.587 101.604,40.098 100.162,40.098C98.719,40.098 96.916,39.597 95.823,38.513C95.336,38.031 94.434,37.092 94.021,36.097C93.494,34.825 93.516,33.513 93.516,33.513Z" style="fill:rgb(255,255,0);"/>
            </g>
            <g transform="matrix(-0.518419,0.811468,-0.897928,-0.468501,357.459,-8.82833)">
                <path d="M93.516,33.513L93.477,17.513C93.477,17.513 93.509,15.425 93.949,14.513C94.43,13.513 95.422,12.135 96.367,11.513C97.542,10.739 98.862,10.307 100.162,10.335C101.461,10.363 103.121,10.986 104.162,11.682C105.163,12.352 105.956,13.541 106.407,14.513C106.832,15.431 106.867,17.513 106.867,17.513L106.862,33.513C106.862,33.513 106.8,34.942 106.252,36.214C105.824,37.209 104.968,38.031 104.478,38.513C103.384,39.587 101.604,40.098 100.162,40.098C98.719,40.098 96.916,39.597 95.823,38.513C95.336,38.031 94.434,37.092 94.021,36.097C93.494,34.825 93.516,33.513 93.516,33.513Z" style="fill:rgb(255,255,0);"/>
            </g>
            <g transform="matrix(-1.66533e-16,0.937002,-1.03684,-3.33067e-16,319.618,-68.9271)">
                <path d="M93.516,33.513L93.477,17.513C93.477,17.513 93.509,15.425 93.949,14.513C94.43,13.513 95.422,12.135 96.367,11.513C97.542,10.739 98.862,10.307 100.162,10.335C101.461,10.363 103.121,10.986 104.162,11.682C105.163,12.352 105.956,13.541 106.407,14.513C106.832,15.431 106.867,17.513 106.867,17.513L106.862,33.513C106.862,33.513 106.8,34.942 106.252,36.214C105.824,37.209 104.968,38.031 104.478,38.513C103.384,39.587 101.604,40.098 100.162,40.098C98.719,40.098 96.916,39.597 95.823,38.513C95.336,38.031 94.434,37.092 94.021,36.097C93.494,34.825 93.516,33.513 93.516,33.513Z" style="fill:rgb(255,255,0);"/>
            </g>
            <g transform="matrix(0.518419,0.811468,-0.897928,0.468501,253.596,-103.876)">
                <path d="M93.516,33.513L93.477,17.513C93.477,17.513 93.509,15.425 93.949,14.513C94.43,13.513 95.422,12.135 96.367,11.513C97.542,10.739 98.862,10.307 100.162,10.335C101.461,10.363 103.121,10.986 104.162,11.682C105.163,12.352 105.956,13.541 106.407,14.513C106.832,15.431 106.867,17.513 106.867,17.513L106.862,33.513C106.862,33.513 106.8,34.942 106.252,36.214C105.824,37.209 104.968,38.031 104.478,38.513C103.384,39.587 101.604,40.098 100.162,40.098C98.719,40.098 96.916,39.597 95.823,38.513C95.336,38.031 94.434,37.092 94.021,36.097C93.494,34.825 93.516,33.513 93.516,33.513Z" style="fill:rgb(255,255,0);"/>
            </g>
            <g transform="matrix(0.897928,0.468501,-0.518419,0.811468,177.084,-104.31)">
                <path d="M93.516,33.513L93.477,17.513C93.477,17.513 93.509,15.425 93.949,14.513C94.43,13.513 95.422,12.135 96.367,11.513C97.542,10.739 98.862,10.307 100.162,10.335C101.461,10.363 103.121,10.986 104.162,11.682C105.163,12.352 105.956,13.541 106.407,14.513C106.832,15.431 106.867,17.513 106.867,17.513L106.862,33.513C106.862,33.513 106.8,34.942 106.252,36.214C105.824,37.209 104.968,38.031 104.478,38.513C103.384,39.587 101.604,40.098 100.162,40.098C98.719,40.098 96.916,39.597 95.823,38.513C95.336,38.031 94.434,37.092 94.021,36.097C93.494,34.825 93.516,33.513 93.516,33.513Z" style="fill:rgb(255,255,0);"/>
            </g>
        </g>
    </g>
</svg>
