<?xml version="1.0" encoding="UTF-8" standalone="no"?>
<!DOCTYPE svg PUBLIC "-//W3C//DTD SVG 1.1//EN" "http://www.w3.org/Graphics/SVG/1.1/DTD/svg11.dtd">
<svg width="100%" height="100%" viewBox="0 0 187 123" version="1.1" xmlns="http://www.w3.org/2000/svg" xmlns:xlink="http://www.w3.org/1999/xlink" xml:space="preserve" xmlns:serif="http://www.serif.com/" style="fill-rule:evenodd;clip-rule:evenodd;stroke-linejoin:round;stroke-miterlimit:2;">
    <g transform="matrix(1,0,0,1,-101.874,-27.5268)">
        <g id="Clouds" transform="matrix(0.955113,0,0,0.904028,81.9543,1.45348)">
            <rect x="20.856" y="28.841" width="194.975" height="135.49" style="fill:none;"/>
            <g transform="matrix(1.047,0,0,1.10616,-10.827,-16.866)">
                <path d="M130.47,60.19L126.864,64.486C126.864,64.486 122.959,61.922 120.942,60.948C118.963,59.991 114.764,58.64 114.764,58.64C114.764,58.64 116.691,55.11 119.503,52.974C120.925,51.893 124.338,48.912 129.255,46.964C133.167,45.414 138.085,44.709 143.315,44.767C164.223,44.997 177.417,62.522 178.248,71.897C188.438,70.113 209.497,76.225 209.11,101.03C208.94,111.886 205.643,119.335 199.157,125.004C194.294,129.254 189.423,130.789 185.683,131.538C183.628,131.949 179.594,131.99 179.594,131.99C179.594,131.99 180.06,128.038 180.038,126.075C180.016,124.112 179.46,120.213 179.46,120.213C179.46,120.213 184.268,119.708 186.377,118.637C188.672,117.472 191.703,115.701 193.231,113.223C195.018,110.323 197.713,107.321 197.102,101.239C196.476,95.009 192.986,90.539 190.369,87.773C187.598,84.843 184.466,83.99 181.688,83.462C178.366,82.831 176.672,82.92 174.462,82.91C172.444,82.9 169.981,83.301 168.427,83.397C167.271,83.469 167.459,82.615 167.309,82.052C167.005,80.905 166.736,77.8 166.599,76.515C166.599,76.515 166.065,70.032 160.291,64.124C157.58,61.35 154.248,58.359 148.721,56.882C143.581,55.508 136.584,55.388 130.47,60.19Z" style="fill:white;fill-opacity:0.96;"/>
            </g>
            <g transform="matrix(1.047,0,0,1.10616,-9.24682,-16.5149)">
                <path d="M59.694,92.473C61.932,81.673 72.96,59.49 99.095,61.027C126.898,62.662 135.122,81.502 137.925,91.666C145.07,91.817 157.168,92.955 165.092,101.384C170.31,106.935 174.223,115.371 173.916,128.415C173.622,140.884 162.142,154.978 149.774,158.265C139.904,160.888 121.05,159.556 102.643,159.201C85.773,158.876 69.278,159.681 60.419,158.58C51.826,157.511 42.458,150.083 38.623,144.444C34.632,138.574 33.433,131.966 33.445,125.765C33.467,115.368 36.879,109.208 40.698,104.107C46.576,96.255 54.332,93.556 59.694,92.473ZM69.874,102.7C61.972,103.77 56,104.1 50.666,111.226C48.198,114.523 46.033,119.157 46.019,125.877C46.011,129.547 47.082,133.569 49.445,137.043C51.874,140.617 57.535,145.754 62.972,146.269C70.714,147.002 86.244,146.678 102.331,146.833C119.655,146.999 137.426,147.739 145.951,146.064C153.971,144.488 161.251,134.74 161.429,127.185C161.627,118.772 158.743,114.097 155.377,110.517C147.562,102.203 140.617,103.942 135.232,103.782C133.235,103.722 128.182,103.737 128.182,103.737C128.182,103.737 127.76,100 127.605,98.156C127.605,98.156 124.608,74.614 98.559,73.082C87.533,72.434 80.012,78.319 76.194,84.43C72.048,91.066 72.36,90.836 71.307,93.881C70.333,96.695 70.359,100.1 69.874,102.7Z" style="fill:white;"/>
            </g>
        </g>
    </g>
</svg>
