<svg viewBox="0 0 200 200" xmlns="http://www.w3.org/2000/svg" xml:space="preserve" style="fill-rule:evenodd;clip-rule:evenodd;stroke-linejoin:round;stroke-miterlimit:2">
    <path d="M-926.435-922.925h3426.96v2296.67h-3426.96z"/>
    <path style="fill:none" d="M110.76-68.766h207.368v187.4H110.76z" transform="matrix(.96447 0 0 1.06723 -106.825 73.39)"/>
    <circle cx="321.82" cy="103.26" r="34.642" style="fill:#fff700" transform="matrix(1.13837 -.00057 .00057 1.13836 -266.41 -17.365)"/>
    <path d="m93.516 33.513-.039-16s.032-2.088.472-3c.481-1 1.473-2.378 2.418-3 1.175-.774 2.495-1.206 3.795-1.178 1.299.028 2.959.651 4 1.347 1.001.67 1.794 1.859 2.245 2.831.425.918.46 3 .46 3l-.005 16s-.062 1.429-.61 2.701c-.428.995-1.284 1.817-1.774 2.299-1.094 1.074-2.874 1.585-4.316 1.585-1.443 0-3.246-.501-4.339-1.585-.487-.482-1.389-1.421-1.802-2.416-.527-1.272-.505-2.584-.505-2.584Z" style="fill:#ff0" transform="translate(20.993 19.996) scale(.7887)"/>
    <path d="m93.516 33.513-.039-16s.032-2.088.472-3c.481-1 1.473-2.378 2.418-3 1.175-.774 2.495-1.206 3.795-1.178 1.299.028 2.959.651 4 1.347 1.001.67 1.794 1.859 2.245 2.831.425.918.46 3 .46 3l-.005 16s-.062 1.429-.61 2.701c-.428.995-1.284 1.817-1.774 2.299-1.094 1.074-2.874 1.585-4.316 1.585-1.443 0-3.246-.501-4.339-1.585-.487-.482-1.389-1.421-1.802-2.416-.527-1.272-.505-2.584-.505-2.584Z" style="fill:#ff0" transform="matrix(.68304 -.39435 .39435 .68303 -8.424 70.217)"/>
    <path d="m93.516 33.513-.039-16s.032-2.088.472-3c.481-1 1.473-2.378 2.418-3 1.175-.774 2.495-1.206 3.795-1.178 1.299.028 2.959.651 4 1.347 1.001.67 1.794 1.859 2.245 2.831.425.918.46 3 .46 3l-.005 16s-.062 1.429-.61 2.701c-.428.995-1.284 1.817-1.774 2.299-1.094 1.074-2.874 1.585-4.316 1.585-1.443 0-3.246-.501-4.339-1.585-.487-.482-1.389-1.421-1.802-2.416-.527-1.272-.505-2.584-.505-2.584Z" style="fill:#ff0" transform="matrix(.39435 -.68303 .68304 .39435 -8.79 128.419)"/>
    <path d="m93.516 33.513-.039-16s.032-2.088.472-3c.481-1 1.473-2.378 2.418-3 1.175-.774 2.495-1.206 3.795-1.178 1.299.028 2.959.651 4 1.347 1.001.67 1.794 1.859 2.245 2.831.425.918.46 3 .46 3l-.005 16s-.062 1.429-.61 2.701c-.428.995-1.284 1.817-1.774 2.299-1.094 1.074-2.874 1.585-4.316 1.585-1.443 0-3.246-.501-4.339-1.585-.487-.482-1.389-1.421-1.802-2.416-.527-1.272-.505-2.584-.505-2.584Z" style="fill:#ff0" transform="matrix(0 -.7887 .7887 0 19.995 179.006)"/>
    <path d="m93.516 33.513-.039-16s.032-2.088.472-3c.481-1 1.473-2.378 2.418-3 1.175-.774 2.495-1.206 3.795-1.178 1.299.028 2.959.651 4 1.347 1.001.67 1.794 1.859 2.245 2.831.425.918.46 3 .46 3l-.005 16s-.062 1.429-.61 2.701c-.428.995-1.284 1.817-1.774 2.299-1.094 1.074-2.874 1.585-4.316 1.585-1.443 0-3.246-.501-4.339-1.585-.487-.482-1.389-1.421-1.802-2.416-.527-1.272-.505-2.584-.505-2.584Z" style="fill:#ff0" transform="matrix(-.39435 -.68303 .68304 -.39435 70.217 208.423)"/>
    <path d="m93.516 33.513-.039-16s.032-2.088.472-3c.481-1 1.473-2.378 2.418-3 1.175-.774 2.495-1.206 3.795-1.178 1.299.028 2.959.651 4 1.347 1.001.67 1.794 1.859 2.245 2.831.425.918.46 3 .46 3l-.005 16s-.062 1.429-.61 2.701c-.428.995-1.284 1.817-1.774 2.299-1.094 1.074-2.874 1.585-4.316 1.585-1.443 0-3.246-.501-4.339-1.585-.487-.482-1.389-1.421-1.802-2.416-.527-1.272-.505-2.584-.505-2.584Z" style="fill:#ff0" transform="matrix(-.68304 -.39435 .39435 -.68303 128.419 208.789)"/>
    <path d="m93.516 33.513-.039-16s.032-2.088.472-3c.481-1 1.473-2.378 2.418-3 1.175-.774 2.495-1.206 3.795-1.178 1.299.028 2.959.651 4 1.347 1.001.67 1.794 1.859 2.245 2.831.425.918.46 3 .46 3l-.005 16s-.062 1.429-.61 2.701c-.428.995-1.284 1.817-1.774 2.299-1.094 1.074-2.874 1.585-4.316 1.585-1.443 0-3.246-.501-4.339-1.585-.487-.482-1.389-1.421-1.802-2.416-.527-1.272-.505-2.584-.505-2.584Z" style="fill:#ff0" transform="matrix(-.7887 0 0 -.7887 179.006 180.004)"/>
    <path d="m93.516 33.513-.039-16s.032-2.088.472-3c.481-1 1.473-2.378 2.418-3 1.175-.774 2.495-1.206 3.795-1.178 1.299.028 2.959.651 4 1.347 1.001.67 1.794 1.859 2.245 2.831.425.918.46 3 .46 3l-.005 16s-.062 1.429-.61 2.701c-.428.995-1.284 1.817-1.774 2.299-1.094 1.074-2.874 1.585-4.316 1.585-1.443 0-3.246-.501-4.339-1.585-.487-.482-1.389-1.421-1.802-2.416-.527-1.272-.505-2.584-.505-2.584Z" style="fill:#ff0" transform="matrix(-.68304 .39435 -.39435 -.68303 208.423 129.782)"/>
    <path d="m93.516 33.513-.039-16s.032-2.088.472-3c.481-1 1.473-2.378 2.418-3 1.175-.774 2.495-1.206 3.795-1.178 1.299.028 2.959.651 4 1.347 1.001.67 1.794 1.859 2.245 2.831.425.918.46 3 .46 3l-.005 16s-.062 1.429-.61 2.701c-.428.995-1.284 1.817-1.774 2.299-1.094 1.074-2.874 1.585-4.316 1.585-1.443 0-3.246-.501-4.339-1.585-.487-.482-1.389-1.421-1.802-2.416-.527-1.272-.505-2.584-.505-2.584Z" style="fill:#ff0" transform="matrix(-.39435 .68303 -.68304 -.39435 208.788 71.58)"/>
    <path d="m93.516 33.513-.039-16s.032-2.088.472-3c.481-1 1.473-2.378 2.418-3 1.175-.774 2.495-1.206 3.795-1.178 1.299.028 2.959.651 4 1.347 1.001.67 1.794 1.859 2.245 2.831.425.918.46 3 .46 3l-.005 16s-.062 1.429-.61 2.701c-.428.995-1.284 1.817-1.774 2.299-1.094 1.074-2.874 1.585-4.316 1.585-1.443 0-3.246-.501-4.339-1.585-.487-.482-1.389-1.421-1.802-2.416-.527-1.272-.505-2.584-.505-2.584Z" style="fill:#ff0" transform="matrix(0 .7887 -.7887 0 180.004 20.994)"/>
    <path d="m93.516 33.513-.039-16s.032-2.088.472-3c.481-1 1.473-2.378 2.418-3 1.175-.774 2.495-1.206 3.795-1.178 1.299.028 2.959.651 4 1.347 1.001.67 1.794 1.859 2.245 2.831.425.918.46 3 .46 3l-.005 16s-.062 1.429-.61 2.701c-.428.995-1.284 1.817-1.774 2.299-1.094 1.074-2.874 1.585-4.316 1.585-1.443 0-3.246-.501-4.339-1.585-.487-.482-1.389-1.421-1.802-2.416-.527-1.272-.505-2.584-.505-2.584Z" style="fill:#ff0" transform="matrix(.39435 .68303 -.68304 .39435 129.783 -8.423)"/>
    <path d="m93.516 33.513-.039-16s.032-2.088.472-3c.481-1 1.473-2.378 2.418-3 1.175-.774 2.495-1.206 3.795-1.178 1.299.028 2.959.651 4 1.347 1.001.67 1.794 1.859 2.245 2.831.425.918.46 3 .46 3l-.005 16s-.062 1.429-.61 2.701c-.428.995-1.284 1.817-1.774 2.299-1.094 1.074-2.874 1.585-4.316 1.585-1.443 0-3.246-.501-4.339-1.585-.487-.482-1.389-1.421-1.802-2.416-.527-1.272-.505-2.584-.505-2.584Z" style="fill:#ff0" transform="matrix(.68304 .39435 -.39435 .68303 71.58 -8.788)"/>
</svg>
