<?xml version="1.0" encoding="UTF-8" standalone="no"?>
<!DOCTYPE svg PUBLIC "-//W3C//DTD SVG 1.1//EN" "http://www.w3.org/Graphics/SVG/1.1/DTD/svg11.dtd">
<svg width="100%" height="100%" viewBox="0 0 331 2930" version="1.1" xmlns="http://www.w3.org/2000/svg" xmlns:xlink="http://www.w3.org/1999/xlink" xml:space="preserve" xmlns:serif="http://www.serif.com/" style="fill-rule:evenodd;clip-rule:evenodd;stroke-linejoin:round;stroke-miterlimit:2;">
    <g transform="matrix(0.713805,0,0,1.41429,-1133,-188)">
        <rect x="0" y="0" width="3507.87" height="2480.32"/>
    </g>
    <g id="TemperaturePalette" transform="matrix(1,0,0,1,-1133.86,-188.976)">
        <rect x="1133.86" y="188.976" width="330.709" height="2929.13" style="fill:none;"/>
        <g transform="matrix(1,0,0,1,0.858268,0.976378)">
            <rect x="1181.1" y="236.22" width="236.22" height="118.11" style="fill:rgb(109,1,30);"/>
        </g>
        <g transform="matrix(0.885794,0,0,0.885794,144.155,41.2679)">
            <g transform="matrix(49.4662,0,0,49.4662,1407.32,318.898)">
            </g>
            <text x="1204.72px" y="318.898px" style="font-family:'ArialMT', 'Arial', sans-serif;font-size:49.466px;fill:white;">#6D01<tspan x="1346.82px 1374.33px " y="318.898px 318.898px ">1E</tspan></text>
        </g>
        <g transform="matrix(1,0,0,1,0.858268,119.087)">
            <rect x="1181.1" y="236.22" width="236.22" height="118.11" style="fill:rgb(196,39,12);"/>
        </g>
        <g transform="matrix(1,0,0,1,0.858268,237.197)">
            <rect x="1181.1" y="236.22" width="236.22" height="118.11" style="fill:rgb(255,93,0);"/>
        </g>
        <g transform="matrix(1,0,0,1,0.858268,355.307)">
            <rect x="1181.1" y="236.22" width="236.22" height="118.11" style="fill:rgb(255,175,0);"/>
        </g>
        <g transform="matrix(1,0,0,1,0.858268,473.417)">
            <rect x="1181.1" y="236.22" width="236.22" height="118.11" style="fill:rgb(3,107,1);"/>
        </g>
        <g transform="matrix(1,0,0,1,0.858268,591.528)">
            <rect x="1181.1" y="236.22" width="236.22" height="118.11" style="fill:rgb(3,98,17);"/>
        </g>
        <g transform="matrix(1,0,0,1,0.858268,709.638)">
            <rect x="1181.1" y="236.22" width="236.22" height="118.11" style="fill:rgb(2,89,38);"/>
        </g>
        <g transform="matrix(1,0,0,1,0.858268,827.748)">
            <rect x="1181.1" y="236.22" width="236.22" height="118.11" style="fill:rgb(2,78,59);"/>
        </g>
        <g transform="matrix(1,0,0,1,0.858268,945.858)">
            <rect x="1181.1" y="236.22" width="236.22" height="118.11" style="fill:rgb(2,68,80);"/>
        </g>
        <g transform="matrix(1,0,0,1,0.858268,1063.97)">
            <rect x="1181.1" y="236.22" width="236.22" height="118.11" style="fill:rgb(1,61,94);"/>
        </g>
        <g transform="matrix(1,0,0,1,0.858268,1182.08)">
            <rect x="1181.1" y="236.22" width="236.22" height="118.11" style="fill:rgb(1,50,116);"/>
        </g>
        <g transform="matrix(1,0,0,1,0.858268,1300.19)">
            <rect x="1181.1" y="236.22" width="236.22" height="118.11" style="fill:rgb(1,42,133);"/>
        </g>
        <g transform="matrix(1,0,0,1,0.858268,1418.3)">
            <rect x="1181.1" y="236.22" width="236.22" height="118.11" style="fill:rgb(1,30,157);"/>
        </g>
        <g transform="matrix(1,0,0,1,0.858268,1536.41)">
            <rect x="1181.1" y="236.22" width="236.22" height="118.11" style="fill:rgb(0,22,174);"/>
        </g>
        <g transform="matrix(1,0,0,1,0.858268,1654.52)">
            <rect x="1181.1" y="236.22" width="236.22" height="118.11" style="fill:rgb(0,11,195);"/>
        </g>
        <g transform="matrix(1,0,0,1,0.858268,1772.63)">
            <rect x="1181.1" y="236.22" width="236.22" height="118.11" style="fill:rgb(0,3,211);"/>
        </g>
        <g transform="matrix(1,0,0,1,0.858268,1890.74)">
            <rect x="1181.1" y="236.22" width="236.22" height="118.11" style="fill:rgb(18,19,220);"/>
        </g>
        <g transform="matrix(1,0,0,1,0.858268,2008.85)">
            <rect x="1181.1" y="236.22" width="236.22" height="118.11" style="fill:rgb(37,38,224);"/>
        </g>
        <g transform="matrix(1,0,0,1,0.858268,2126.96)">
            <rect x="1181.1" y="236.22" width="236.22" height="118.11" style="fill:rgb(64,64,230);"/>
        </g>
        <g transform="matrix(1,0,0,1,0.858268,2245.07)">
            <rect x="1181.1" y="236.22" width="236.22" height="118.11" style="fill:rgb(80,80,233);"/>
        </g>
        <g transform="matrix(1,0,0,1,0.858268,2363.18)">
            <rect x="1181.1" y="236.22" width="236.22" height="118.11" style="fill:rgb(107,107,239);"/>
        </g>
        <g transform="matrix(1,0,0,1,0.858268,2481.29)">
            <rect x="1181.1" y="236.22" width="236.22" height="118.11" style="fill:rgb(124,124,243);"/>
        </g>
        <g transform="matrix(1,0,0,1,0.858268,2599.4)">
            <rect x="1181.1" y="236.22" width="236.22" height="118.11" style="fill:rgb(149,149,248);"/>
        </g>
        <g transform="matrix(1,0,0,1,0.858268,2717.51)">
            <rect x="1181.1" y="236.22" width="236.22" height="118.11" style="fill:rgb(169,169,253);"/>
        </g>
        <g transform="matrix(0.614667,0,0,0.614667,872.964,119.979)">
            <g transform="matrix(50,0,0,50,619.976,243.75)">
            </g>
            <text x="514.361px" y="243.75px" style="font-family:'ArialMT', 'Arial', sans-serif;font-size:50px;fill:white;">40 C</text>
        </g>
        <g transform="matrix(0.623534,0,0,0.623534,867.484,355.94)">
            <g transform="matrix(50,0,0,50,619.976,243.75)">
            </g>
            <text x="514.361px" y="243.75px" style="font-family:'ArialMT', 'Arial', sans-serif;font-size:50px;fill:white;">35 C</text>
        </g>
        <g transform="matrix(0.723424,0,0,0.723424,817.328,2889.95)">
            <g transform="matrix(50,0,0,50,636.626,243.75)">
            </g>
            <text x="514.361px" y="243.75px" style="font-family:'ArialMT', 'Arial', sans-serif;font-size:50px;fill:white;">-20 C</text>
        </g>
        <g transform="matrix(0.723424,0,0,0.723424,817.328,2695.85)">
            <g transform="matrix(50,0,0,50,636.626,243.75)">
            </g>
            <text x="514.361px" y="243.75px" style="font-family:'ArialMT', 'Arial', sans-serif;font-size:50px;fill:white;">-15 C</text>
        </g>
        <g transform="matrix(0.723424,0,0,0.723424,817.328,2458.5)">
            <g transform="matrix(50,0,0,50,636.626,243.75)">
            </g>
            <text x="514.361px" y="243.75px" style="font-family:'ArialMT', 'Arial', sans-serif;font-size:50px;fill:white;">-10 C</text>
        </g>
        <g transform="matrix(0.696556,0,0,0.696556,830.128,2224.37)">
            <g transform="matrix(50,0,0,50,608.819,243.75)">
            </g>
            <text x="514.361px" y="243.75px" style="font-family:'ArialMT', 'Arial', sans-serif;font-size:50px;fill:white;">-5 C</text>
        </g>
        <g transform="matrix(0.698279,0,0,0.698279,828.898,1987.29)">
            <g transform="matrix(50,0,0,50,592.168,243.75)">
            </g>
            <text x="514.361px" y="243.75px" style="font-family:'ArialMT', 'Arial', sans-serif;font-size:50px;fill:white;">0 C</text>
        </g>
        <g transform="matrix(0.698279,0,0,0.698279,828.898,1751.07)">
            <g transform="matrix(50,0,0,50,592.168,243.75)">
            </g>
            <text x="514.361px" y="243.75px" style="font-family:'ArialMT', 'Arial', sans-serif;font-size:50px;fill:white;">5 C</text>
        </g>
        <g transform="matrix(0.644774,0,0,0.644774,854.358,1525.94)">
            <g transform="matrix(50,0,0,50,619.976,243.75)">
            </g>
            <text x="514.361px" y="243.75px" style="font-family:'ArialMT', 'Arial', sans-serif;font-size:50px;fill:white;">10 C</text>
        </g>
        <g transform="matrix(0.644774,0,0,0.644774,854.358,1289.72)">
            <g transform="matrix(50,0,0,50,619.976,243.75)">
            </g>
            <text x="514.361px" y="243.75px" style="font-family:'ArialMT', 'Arial', sans-serif;font-size:50px;fill:white;">15 C</text>
        </g>
        <g transform="matrix(0.619933,0,0,0.619933,869.709,1063.77)">
            <g transform="matrix(50,0,0,50,619.976,243.75)">
            </g>
            <text x="514.361px" y="243.75px" style="font-family:'ArialMT', 'Arial', sans-serif;font-size:50px;fill:white;">20 C</text>
        </g>
        <g transform="matrix(0.619933,0,0,0.619933,869.709,829.127)">
            <g transform="matrix(50,0,0,50,619.976,243.75)">
            </g>
            <text x="514.361px" y="243.75px" style="font-family:'ArialMT', 'Arial', sans-serif;font-size:50px;fill:white;">25 C</text>
        </g>
        <g transform="matrix(0.723424,0,0,0.723424,817.328,2647.03)">
            <g transform="matrix(50,0,0,50,636.626,243.75)">
            </g>
            <text x="514.361px" y="243.75px" style="font-family:'ArialMT', 'Arial', sans-serif;font-size:50px;fill:white;">-15 C</text>
        </g>
        <g transform="matrix(0.723424,0,0,0.723424,817.328,2409.68)">
            <g transform="matrix(50,0,0,50,636.626,243.75)">
            </g>
            <text x="514.361px" y="243.75px" style="font-family:'ArialMT', 'Arial', sans-serif;font-size:50px;fill:white;">-10 C</text>
        </g>
        <g transform="matrix(0.696556,0,0,0.696556,830.128,2175.55)">
            <g transform="matrix(50,0,0,50,608.819,243.75)">
            </g>
            <text x="514.361px" y="243.75px" style="font-family:'ArialMT', 'Arial', sans-serif;font-size:50px;fill:white;">-5 C</text>
        </g>
        <g transform="matrix(0.698279,0,0,0.698279,828.898,1938.47)">
            <g transform="matrix(50,0,0,50,592.168,243.75)">
            </g>
            <text x="514.361px" y="243.75px" style="font-family:'ArialMT', 'Arial', sans-serif;font-size:50px;fill:white;">0 C</text>
        </g>
        <g transform="matrix(0.698279,0,0,0.698279,828.898,1702.25)">
            <g transform="matrix(50,0,0,50,592.168,243.75)">
            </g>
            <text x="514.361px" y="243.75px" style="font-family:'ArialMT', 'Arial', sans-serif;font-size:50px;fill:white;">5 C</text>
        </g>
        <g transform="matrix(0.644774,0,0,0.644774,854.358,1477.12)">
            <g transform="matrix(50,0,0,50,619.976,243.75)">
            </g>
            <text x="514.361px" y="243.75px" style="font-family:'ArialMT', 'Arial', sans-serif;font-size:50px;fill:white;">10 C</text>
        </g>
        <g transform="matrix(0.644774,0,0,0.644774,854.358,1240.9)">
            <g transform="matrix(50,0,0,50,619.976,243.75)">
            </g>
            <text x="514.361px" y="243.75px" style="font-family:'ArialMT', 'Arial', sans-serif;font-size:50px;fill:white;">15 C</text>
        </g>
        <g transform="matrix(0.619933,0,0,0.619933,869.709,1014.95)">
            <g transform="matrix(50,0,0,50,619.976,243.75)">
            </g>
            <text x="514.361px" y="243.75px" style="font-family:'ArialMT', 'Arial', sans-serif;font-size:50px;fill:white;">20 C</text>
        </g>
        <g transform="matrix(0.619933,0,0,0.619933,869.709,780.309)">
            <g transform="matrix(50,0,0,50,619.976,243.75)">
            </g>
            <text x="514.361px" y="243.75px" style="font-family:'ArialMT', 'Arial', sans-serif;font-size:50px;fill:white;">25 C</text>
        </g>
        <g transform="matrix(0.623534,0,0,0.623534,867.484,590.557)">
            <g transform="matrix(50,0,0,50,619.976,243.75)">
            </g>
            <text x="514.361px" y="243.75px" style="font-family:'ArialMT', 'Arial', sans-serif;font-size:50px;fill:white;">30 C</text>
        </g>
        <g transform="matrix(0.623534,0,0,0.623534,867.484,309.761)">
            <g transform="matrix(50,0,0,50,619.976,243.75)">
            </g>
            <text x="514.361px" y="243.75px" style="font-family:'ArialMT', 'Arial', sans-serif;font-size:50px;fill:white;">35 C</text>
        </g>
        <g transform="matrix(0.623534,0,0,0.623534,867.484,544.379)">
            <g transform="matrix(50,0,0,50,619.976,243.75)">
            </g>
            <text x="514.361px" y="243.75px" style="font-family:'ArialMT', 'Arial', sans-serif;font-size:50px;fill:white;">30 C</text>
        </g>
        <g transform="matrix(0.885794,0,0,0.885794,144.155,135.756)">
            <g transform="matrix(49.4662,0,0,49.4662,1413.72,318.898)">
            </g>
            <text x="1204.72px" y="318.898px" style="font-family:'ArialMT', 'Arial', sans-serif;font-size:49.466px;fill:white;">#C4270C</text>
        </g>
        <g transform="matrix(0.885794,0,0,0.885794,144.155,270.084)">
            <g transform="matrix(49.4662,0,0,49.4662,1410.92,318.898)">
            </g>
            <text x="1204.72px" y="318.898px" style="font-family:'ArialMT', 'Arial', sans-serif;font-size:49.466px;fill:white;">#FF5D00</text>
        </g>
        <g transform="matrix(0.885794,0,0,0.885794,144.155,376.383)">
            <g transform="matrix(49.4662,0,0,49.4662,1408.17,318.898)">
            </g>
            <text x="1204.72px" y="318.898px" style="font-family:'ArialMT', 'Arial', sans-serif;font-size:49.466px;fill:white;">#FF<tspan x="1289.94px 1322.93px " y="318.898px 318.898px ">AF</tspan>00</text>
        </g>
        <g transform="matrix(0.885794,0,0,0.885794,144.155,509.837)">
            <g transform="matrix(49.4662,0,0,49.4662,1402.78,318.898)">
            </g>
            <text x="1204.72px" y="318.898px" style="font-family:'ArialMT', 'Arial', sans-serif;font-size:49.466px;fill:white;">#036B01</text>
        </g>
        <g transform="matrix(0.885794,0,0,0.885794,144.155,608.197)">
            <g transform="matrix(49.4662,0,0,49.4662,1393.63,318.898)">
            </g>
            <text x="1204.72px" y="318.898px" style="font-family:'ArialMT', 'Arial', sans-serif;font-size:49.466px;fill:white;">#03621<tspan x="1366.12px " y="318.898px ">1</tspan></text>
        </g>
        <g transform="matrix(0.885794,0,0,0.885794,144.155,746.058)">
            <g transform="matrix(49.4662,0,0,49.4662,1397.3,318.898)">
            </g>
            <text x="1204.72px" y="318.898px" style="font-family:'ArialMT', 'Arial', sans-serif;font-size:49.466px;fill:white;">#025926</text>
        </g>
        <g transform="matrix(0.885794,0,0,0.885794,144.155,844.418)">
            <g transform="matrix(49.4662,0,0,49.4662,1408.27,318.898)">
            </g>
            <text x="1204.72px" y="318.898px" style="font-family:'ArialMT', 'Arial', sans-serif;font-size:49.466px;fill:white;">#024E3B</text>
        </g>
        <g transform="matrix(0.885794,0,0,0.885794,144.155,982.278)">
            <g transform="matrix(49.4662,0,0,49.4662,1397.3,318.898)">
            </g>
            <text x="1204.72px" y="318.898px" style="font-family:'ArialMT', 'Arial', sans-serif;font-size:49.466px;fill:white;">#024450</text>
        </g>
        <g transform="matrix(0.885794,0,0,0.885794,144.155,1080.64)">
            <g transform="matrix(49.4662,0,0,49.4662,1410.99,318.898)">
            </g>
            <text x="1204.72px" y="318.898px" style="font-family:'ArialMT', 'Arial', sans-serif;font-size:49.466px;fill:white;">#013D5E</text>
        </g>
        <g transform="matrix(0.885794,0,0,0.885794,144.155,1217.96)">
            <g transform="matrix(49.4662,0,0,49.4662,1397.3,318.898)">
            </g>
            <text x="1204.72px" y="318.898px" style="font-family:'ArialMT', 'Arial', sans-serif;font-size:49.466px;fill:white;">#013274</text>
        </g>
        <g transform="matrix(0.885794,0,0,0.885794,144.155,1316.86)">
            <g transform="matrix(49.4662,0,0,49.4662,1402.78,318.898)">
            </g>
            <text x="1204.72px" y="318.898px" style="font-family:'ArialMT', 'Arial', sans-serif;font-size:49.466px;fill:white;">#012A85</text>
        </g>
        <g transform="matrix(0.885794,0,0,0.885794,144.155,1454.18)">
            <g transform="matrix(49.4662,0,0,49.4662,1407.32,318.898)">
            </g>
            <text x="1204.72px" y="318.898px" style="font-family:'ArialMT', 'Arial', sans-serif;font-size:49.466px;fill:white;">#01<tspan x="1283.59px 1311.1px " y="318.898px 318.898px ">1E</tspan>9D</text>
        </g>
        <g transform="matrix(0.885794,0,0,0.885794,144.155,1548.67)">
            <g transform="matrix(49.4662,0,0,49.4662,1408.27,318.898)">
            </g>
            <text x="1204.72px" y="318.898px" style="font-family:'ArialMT', 'Arial', sans-serif;font-size:49.466px;fill:white;">#0016AE</text>
        </g>
        <g transform="matrix(0.885794,0,0,0.885794,144.155,1687.41)">
            <g transform="matrix(49.4662,0,0,49.4662,1410.99,318.898)">
            </g>
            <text x="1204.72px" y="318.898px" style="font-family:'ArialMT', 'Arial', sans-serif;font-size:49.466px;fill:white;">#000BC3</text>
        </g>
        <g transform="matrix(0.885794,0,0,0.885794,144.155,1789.3)">
            <g transform="matrix(49.4662,0,0,49.4662,1405.51,318.898)">
            </g>
            <text x="1204.72px" y="318.898px" style="font-family:'ArialMT', 'Arial', sans-serif;font-size:49.466px;fill:white;">#0003D3</text>
        </g>
        <g transform="matrix(0.885794,0,0,0.885794,144.155,1923.63)">
            <g transform="matrix(49.4662,0,0,49.4662,1413.72,318.898)">
            </g>
            <text x="1204.72px" y="318.898px" style="font-family:'ArialMT', 'Arial', sans-serif;font-size:49.466px;fill:white;">#1213DC</text>
        </g>
        <g transform="matrix(0.885794,0,0,0.885794,144.155,2025.52)">
            <g transform="matrix(49.4662,0,0,49.4662,1402.78,318.898)">
            </g>
            <text x="1204.72px" y="318.898px" style="font-family:'ArialMT', 'Arial', sans-serif;font-size:49.466px;fill:white;">#2526E0</text>
        </g>
        <g transform="matrix(0.885794,0,0,0.885794,144.155,2155.44)">
            <g transform="matrix(49.4662,0,0,49.4662,1402.78,318.898)">
            </g>
            <text x="1204.72px" y="318.898px" style="font-family:'ArialMT', 'Arial', sans-serif;font-size:49.466px;fill:white;">#4040E6</text>
        </g>
        <g transform="matrix(0.885794,0,0,0.885794,144.155,2257.33)">
            <g transform="matrix(49.4662,0,0,49.4662,1402.78,318.898)">
            </g>
            <text x="1204.72px" y="318.898px" style="font-family:'ArialMT', 'Arial', sans-serif;font-size:49.466px;fill:white;">#5050E9</text>
        </g>
        <g transform="matrix(0.885794,0,0,0.885794,144.155,2396.07)">
            <g transform="matrix(49.4662,0,0,49.4662,1416.45,318.898)">
            </g>
            <text x="1204.72px" y="318.898px" style="font-family:'ArialMT', 'Arial', sans-serif;font-size:49.466px;fill:white;">#6B6BEF</text>
        </g>
        <g transform="matrix(0.885794,0,0,0.885794,144.155,2502.37)">
            <g transform="matrix(49.4662,0,0,49.4662,1416.43,318.898)">
            </g>
            <text x="1204.72px" y="318.898px" style="font-family:'ArialMT', 'Arial', sans-serif;font-size:49.466px;fill:white;">#7C7CF3</text>
        </g>
        <g transform="matrix(0.885794,0,0,0.885794,144.155,2639.69)">
            <g transform="matrix(49.4662,0,0,49.4662,1400,318.898)">
            </g>
            <text x="1204.72px" y="318.898px" style="font-family:'ArialMT', 'Arial', sans-serif;font-size:49.466px;fill:white;">#9595F8</text>
        </g>
        <g transform="matrix(0.885794,0,0,0.885794,144.155,2738.59)">
            <g transform="matrix(49.4662,0,0,49.4662,1419.18,318.898)">
            </g>
            <text x="1204.72px" y="318.898px" style="font-family:'ArialMT', 'Arial', sans-serif;font-size:49.466px;fill:white;">#A9A9FD</text>
        </g>
    </g>
</svg>
