<?xml version="1.0" encoding="UTF-8" standalone="no"?>
<!DOCTYPE svg PUBLIC "-//W3C//DTD SVG 1.1//EN" "http://www.w3.org/Graphics/SVG/1.1/DTD/svg11.dtd">
<svg width="100%" height="100%" viewBox="0 0 200 200" version="1.1" xmlns="http://www.w3.org/2000/svg" xmlns:xlink="http://www.w3.org/1999/xlink" xml:space="preserve" xmlns:serif="http://www.serif.com/" style="fill-rule:evenodd;clip-rule:evenodd;stroke-linejoin:round;stroke-miterlimit:2;">
    <g transform="matrix(1,0,0,1,-435.95,-270.959)">
        <g transform="matrix(1,0,0,1,292.408,-172.397)">
            <rect x="-1057.14" y="-740.46" width="3426.96" height="2296.67"/>
        </g>
        <g id="CloudSun" transform="matrix(1.02577,0,0,1.47613,414.557,228.386)">
            <rect x="20.856" y="28.841" width="194.975" height="135.49" style="fill:none;"/>
            <g transform="matrix(1.12305,-0.000390863,0.000562467,0.780416,-224.416,10.9715)">
                <path d="M291.465,86.565C297.365,75.87 308.752,68.618 321.82,68.618C340.939,68.618 356.462,84.141 356.462,103.26C356.462,110.563 354.197,117.341 350.332,122.93C348.949,121.466 347.426,120.247 345.822,119.232C340.114,113.401 331.581,112.599 326.51,112.49C325.158,107.577 322.049,99.851 314.104,94.937C308.957,90.629 301.711,87.289 291.465,86.565Z" style="fill:rgb(255,247,0);"/>
            </g>
            <g transform="matrix(0.778088,0,0,0.5407,59.1193,36.5843)">
                <path d="M93.516,33.513L93.477,17.513C93.477,17.513 93.509,15.425 93.949,14.513C94.43,13.513 95.422,12.135 96.367,11.513C97.542,10.739 98.862,10.307 100.162,10.335C101.461,10.363 103.121,10.986 104.162,11.682C105.163,12.352 105.956,13.541 106.407,14.513C106.832,15.431 106.867,17.513 106.867,17.513L106.862,33.513C106.862,33.513 106.8,34.942 106.252,36.214C105.824,37.209 104.968,38.031 104.478,38.513C103.384,39.587 101.604,40.098 100.162,40.098C98.719,40.098 96.916,39.597 95.823,38.513C95.336,38.031 94.434,37.092 94.021,36.097C93.494,34.825 93.516,33.513 93.516,33.513Z" style="fill:rgb(255,255,0);"/>
            </g>
            <g transform="matrix(0.673844,-0.27035,0.389044,0.46826,30.0978,71.014)">
                <path d="M93.516,33.513L93.477,17.513C93.477,17.513 93.509,15.425 93.949,14.513C94.43,13.513 95.422,12.135 96.367,11.513C97.542,10.739 98.862,10.307 100.162,10.335C101.461,10.363 103.121,10.986 104.162,11.682C105.163,12.352 105.956,13.541 106.407,14.513C106.832,15.431 106.867,17.513 106.867,17.513L106.862,33.513C106.862,33.513 106.8,34.942 106.252,36.214C105.824,37.209 104.968,38.031 104.478,38.513C103.384,39.587 101.604,40.098 100.162,40.098C98.719,40.098 96.916,39.597 95.823,38.513C95.336,38.031 94.434,37.092 94.021,36.097C93.494,34.825 93.516,33.513 93.516,33.513Z" style="fill:rgb(255,255,0);"/>
            </g>
            <g transform="matrix(0.389044,-0.46826,0.673844,0.27035,29.7374,110.915)">
                <path d="M93.516,33.513L93.477,17.513C93.477,17.513 93.509,15.425 93.949,14.513C94.43,13.513 95.422,12.135 96.367,11.513C97.542,10.739 98.862,10.307 100.162,10.335C101.461,10.363 103.121,10.986 104.162,11.682C105.163,12.352 105.956,13.541 106.407,14.513C106.832,15.431 106.867,17.513 106.867,17.513L106.862,33.513C106.862,33.513 106.8,34.942 106.252,36.214C105.824,37.209 104.968,38.031 104.478,38.513C103.384,39.587 101.604,40.098 100.162,40.098C98.719,40.098 96.916,39.597 95.823,38.513C95.336,38.031 94.434,37.092 94.021,36.097C93.494,34.825 93.516,33.513 93.516,33.513Z" style="fill:rgb(255,255,0);"/>
            </g>
            <g transform="matrix(-0.389044,0.46826,-0.673844,-0.27035,244.387,71.9488)">
                <path d="M93.516,33.513L93.477,17.513C93.477,17.513 93.509,15.425 93.949,14.513C94.43,13.513 95.422,12.135 96.367,11.513C97.542,10.739 98.862,10.307 100.162,10.335C101.461,10.363 103.121,10.986 104.162,11.682C105.163,12.352 105.956,13.541 106.407,14.513C106.832,15.431 106.867,17.513 106.867,17.513L106.862,33.513C106.862,33.513 106.8,34.942 106.252,36.214C105.824,37.209 104.968,38.031 104.478,38.513C103.384,39.587 101.604,40.098 100.162,40.098C98.719,40.098 96.916,39.597 95.823,38.513C95.336,38.031 94.434,37.092 94.021,36.097C93.494,34.825 93.516,33.513 93.516,33.513Z" style="fill:rgb(255,255,0);"/>
            </g>
            <g transform="matrix(-1.24974e-16,0.5407,-0.778088,-1.92197e-16,215.99,37.2687)">
                <path d="M93.516,33.513L93.477,17.513C93.477,17.513 93.509,15.425 93.949,14.513C94.43,13.513 95.422,12.135 96.367,11.513C97.542,10.739 98.862,10.307 100.162,10.335C101.461,10.363 103.121,10.986 104.162,11.682C105.163,12.352 105.956,13.541 106.407,14.513C106.832,15.431 106.867,17.513 106.867,17.513L106.862,33.513C106.862,33.513 106.8,34.942 106.252,36.214C105.824,37.209 104.968,38.031 104.478,38.513C103.384,39.587 101.604,40.098 100.162,40.098C98.719,40.098 96.916,39.597 95.823,38.513C95.336,38.031 94.434,37.092 94.021,36.097C93.494,34.825 93.516,33.513 93.516,33.513Z" style="fill:rgb(255,255,0);"/>
            </g>
            <g transform="matrix(0.389044,0.46826,-0.673844,0.27035,166.444,17.1014)">
                <path d="M93.516,33.513L93.477,17.513C93.477,17.513 93.509,15.425 93.949,14.513C94.43,13.513 95.422,12.135 96.367,11.513C97.542,10.739 98.862,10.307 100.162,10.335C101.461,10.363 103.121,10.986 104.162,11.682C105.163,12.352 105.956,13.541 106.407,14.513C106.832,15.431 106.867,17.513 106.867,17.513L106.862,33.513C106.862,33.513 106.8,34.942 106.252,36.214C105.824,37.209 104.968,38.031 104.478,38.513C103.384,39.587 101.604,40.098 100.162,40.098C98.719,40.098 96.916,39.597 95.823,38.513C95.336,38.031 94.434,37.092 94.021,36.097C93.494,34.825 93.516,33.513 93.516,33.513Z" style="fill:rgb(255,255,0);"/>
            </g>
            <g transform="matrix(0.673844,0.27035,-0.389044,0.46826,109.025,16.8509)">
                <path d="M93.516,33.513L93.477,17.513C93.477,17.513 93.509,15.425 93.949,14.513C94.43,13.513 95.422,12.135 96.367,11.513C97.542,10.739 98.862,10.307 100.162,10.335C101.461,10.363 103.121,10.986 104.162,11.682C105.163,12.352 105.956,13.541 106.407,14.513C106.832,15.431 106.867,17.513 106.867,17.513L106.862,33.513C106.862,33.513 106.8,34.942 106.252,36.214C105.824,37.209 104.968,38.031 104.478,38.513C103.384,39.587 101.604,40.098 100.162,40.098C98.719,40.098 96.916,39.597 95.823,38.513C95.336,38.031 94.434,37.092 94.021,36.097C93.494,34.825 93.516,33.513 93.516,33.513Z" style="fill:rgb(255,255,0);"/>
            </g>
            <g transform="matrix(1.01377,0,0,0.704474,-5.16765,38.387)">
                <path d="M59.694,92.473C61.932,81.673 72.96,59.49 99.095,61.027C126.898,62.662 135.122,81.502 137.925,91.666C145.07,91.817 157.168,92.955 165.092,101.384C170.31,106.935 174.223,115.371 173.916,128.415C173.622,140.884 162.142,154.978 149.774,158.265C139.904,160.888 121.05,159.556 102.643,159.201C85.773,158.876 69.278,159.681 60.419,158.58C51.826,157.511 42.458,150.083 38.623,144.444C34.632,138.574 33.433,131.966 33.445,125.765C33.467,115.368 36.879,109.208 40.698,104.107C46.576,96.255 54.332,93.556 59.694,92.473ZM69.874,102.7C61.972,103.77 56,104.1 50.666,111.226C48.198,114.523 46.033,119.157 46.019,125.877C46.011,129.547 47.082,133.569 49.445,137.043C51.874,140.617 57.535,145.754 62.972,146.269C70.714,147.002 86.244,146.678 102.331,146.833C119.655,146.999 137.426,147.739 145.951,146.064C153.971,144.488 161.251,134.74 161.429,127.185C161.627,118.772 158.743,114.097 155.377,110.517C147.562,102.203 140.617,103.942 135.232,103.782C133.235,103.722 128.182,103.737 128.182,103.737C128.182,103.737 127.76,100 127.605,98.156C127.605,98.156 124.608,74.614 98.559,73.082C87.533,72.434 80.012,78.319 76.194,84.43C72.048,91.066 72.36,90.836 71.307,93.881C70.333,96.695 70.359,100.1 69.874,102.7Z" style="fill:white;"/>
            </g>
            <g transform="matrix(1.12305,-0.000390863,0.000562467,0.780416,-224.416,10.9715)">
                <path d="M291.465,86.565C297.365,75.87 308.752,68.618 321.82,68.618C340.939,68.618 356.462,84.141 356.462,103.26C356.462,110.563 354.197,117.341 350.332,122.93C348.949,121.466 347.426,120.247 345.822,119.232C340.114,113.401 331.581,112.599 326.51,112.49C325.158,107.577 322.049,99.851 314.104,94.937C308.957,90.629 301.711,87.289 291.465,86.565Z" style="fill:rgb(255,247,0);"/>
            </g>
            <g transform="matrix(0.778088,0,0,0.5407,59.1193,36.5843)">
                <path d="M93.516,33.513L93.477,17.513C93.477,17.513 93.509,15.425 93.949,14.513C94.43,13.513 95.422,12.135 96.367,11.513C97.542,10.739 98.862,10.307 100.162,10.335C101.461,10.363 103.121,10.986 104.162,11.682C105.163,12.352 105.956,13.541 106.407,14.513C106.832,15.431 106.867,17.513 106.867,17.513L106.862,33.513C106.862,33.513 106.8,34.942 106.252,36.214C105.824,37.209 104.968,38.031 104.478,38.513C103.384,39.587 101.604,40.098 100.162,40.098C98.719,40.098 96.916,39.597 95.823,38.513C95.336,38.031 94.434,37.092 94.021,36.097C93.494,34.825 93.516,33.513 93.516,33.513Z" style="fill:rgb(255,255,0);"/>
            </g>
            <g transform="matrix(0.673844,-0.27035,0.389044,0.46826,30.0978,71.014)">
                <path d="M93.516,33.513L93.477,17.513C93.477,17.513 93.509,15.425 93.949,14.513C94.43,13.513 95.422,12.135 96.367,11.513C97.542,10.739 98.862,10.307 100.162,10.335C101.461,10.363 103.121,10.986 104.162,11.682C105.163,12.352 105.956,13.541 106.407,14.513C106.832,15.431 106.867,17.513 106.867,17.513L106.862,33.513C106.862,33.513 106.8,34.942 106.252,36.214C105.824,37.209 104.968,38.031 104.478,38.513C103.384,39.587 101.604,40.098 100.162,40.098C98.719,40.098 96.916,39.597 95.823,38.513C95.336,38.031 94.434,37.092 94.021,36.097C93.494,34.825 93.516,33.513 93.516,33.513Z" style="fill:rgb(255,255,0);"/>
            </g>
            <g transform="matrix(0.389044,-0.46826,0.673844,0.27035,29.7374,110.915)">
                <path d="M93.516,33.513L93.477,17.513C93.477,17.513 93.509,15.425 93.949,14.513C94.43,13.513 95.422,12.135 96.367,11.513C97.542,10.739 98.862,10.307 100.162,10.335C101.461,10.363 103.121,10.986 104.162,11.682C105.163,12.352 105.956,13.541 106.407,14.513C106.832,15.431 106.867,17.513 106.867,17.513L106.862,33.513C106.862,33.513 106.8,34.942 106.252,36.214C105.824,37.209 104.968,38.031 104.478,38.513C103.384,39.587 101.604,40.098 100.162,40.098C98.719,40.098 96.916,39.597 95.823,38.513C95.336,38.031 94.434,37.092 94.021,36.097C93.494,34.825 93.516,33.513 93.516,33.513Z" style="fill:rgb(255,255,0);"/>
            </g>
            <g transform="matrix(-0.389044,0.46826,-0.673844,-0.27035,244.387,71.9488)">
                <path d="M93.516,33.513L93.477,17.513C93.477,17.513 93.509,15.425 93.949,14.513C94.43,13.513 95.422,12.135 96.367,11.513C97.542,10.739 98.862,10.307 100.162,10.335C101.461,10.363 103.121,10.986 104.162,11.682C105.163,12.352 105.956,13.541 106.407,14.513C106.832,15.431 106.867,17.513 106.867,17.513L106.862,33.513C106.862,33.513 106.8,34.942 106.252,36.214C105.824,37.209 104.968,38.031 104.478,38.513C103.384,39.587 101.604,40.098 100.162,40.098C98.719,40.098 96.916,39.597 95.823,38.513C95.336,38.031 94.434,37.092 94.021,36.097C93.494,34.825 93.516,33.513 93.516,33.513Z" style="fill:rgb(255,255,0);"/>
            </g>
            <g transform="matrix(-1.24974e-16,0.5407,-0.778088,-1.92197e-16,215.99,37.2687)">
                <path d="M93.516,33.513L93.477,17.513C93.477,17.513 93.509,15.425 93.949,14.513C94.43,13.513 95.422,12.135 96.367,11.513C97.542,10.739 98.862,10.307 100.162,10.335C101.461,10.363 103.121,10.986 104.162,11.682C105.163,12.352 105.956,13.541 106.407,14.513C106.832,15.431 106.867,17.513 106.867,17.513L106.862,33.513C106.862,33.513 106.8,34.942 106.252,36.214C105.824,37.209 104.968,38.031 104.478,38.513C103.384,39.587 101.604,40.098 100.162,40.098C98.719,40.098 96.916,39.597 95.823,38.513C95.336,38.031 94.434,37.092 94.021,36.097C93.494,34.825 93.516,33.513 93.516,33.513Z" style="fill:rgb(255,255,0);"/>
            </g>
            <g transform="matrix(0.389044,0.46826,-0.673844,0.27035,166.444,17.1014)">
                <path d="M93.516,33.513L93.477,17.513C93.477,17.513 93.509,15.425 93.949,14.513C94.43,13.513 95.422,12.135 96.367,11.513C97.542,10.739 98.862,10.307 100.162,10.335C101.461,10.363 103.121,10.986 104.162,11.682C105.163,12.352 105.956,13.541 106.407,14.513C106.832,15.431 106.867,17.513 106.867,17.513L106.862,33.513C106.862,33.513 106.8,34.942 106.252,36.214C105.824,37.209 104.968,38.031 104.478,38.513C103.384,39.587 101.604,40.098 100.162,40.098C98.719,40.098 96.916,39.597 95.823,38.513C95.336,38.031 94.434,37.092 94.021,36.097C93.494,34.825 93.516,33.513 93.516,33.513Z" style="fill:rgb(255,255,0);"/>
            </g>
            <g transform="matrix(0.673844,0.27035,-0.389044,0.46826,109.025,16.8509)">
                <path d="M93.516,33.513L93.477,17.513C93.477,17.513 93.509,15.425 93.949,14.513C94.43,13.513 95.422,12.135 96.367,11.513C97.542,10.739 98.862,10.307 100.162,10.335C101.461,10.363 103.121,10.986 104.162,11.682C105.163,12.352 105.956,13.541 106.407,14.513C106.832,15.431 106.867,17.513 106.867,17.513L106.862,33.513C106.862,33.513 106.8,34.942 106.252,36.214C105.824,37.209 104.968,38.031 104.478,38.513C103.384,39.587 101.604,40.098 100.162,40.098C98.719,40.098 96.916,39.597 95.823,38.513C95.336,38.031 94.434,37.092 94.021,36.097C93.494,34.825 93.516,33.513 93.516,33.513Z" style="fill:rgb(255,255,0);"/>
            </g>
            <g transform="matrix(1.01377,0,0,0.704474,-5.16765,38.387)">
                <path d="M59.694,92.473C61.932,81.673 72.96,59.49 99.095,61.027C126.898,62.662 135.122,81.502 137.925,91.666C145.07,91.817 157.168,92.955 165.092,101.384C170.31,106.935 174.223,115.371 173.916,128.415C173.622,140.884 162.142,154.978 149.774,158.265C139.904,160.888 121.05,159.556 102.643,159.201C85.773,158.876 69.278,159.681 60.419,158.58C51.826,157.511 42.458,150.083 38.623,144.444C34.632,138.574 33.433,131.966 33.445,125.765C33.467,115.368 36.879,109.208 40.698,104.107C46.576,96.255 54.332,93.556 59.694,92.473ZM69.874,102.7C61.972,103.77 56,104.1 50.666,111.226C48.198,114.523 46.033,119.157 46.019,125.877C46.011,129.547 47.082,133.569 49.445,137.043C51.874,140.617 57.535,145.754 62.972,146.269C70.714,147.002 86.244,146.678 102.331,146.833C119.655,146.999 137.426,147.739 145.951,146.064C153.971,144.488 161.251,134.74 161.429,127.185C161.627,118.772 158.743,114.097 155.377,110.517C147.562,102.203 140.617,103.942 135.232,103.782C133.235,103.722 128.182,103.737 128.182,103.737C128.182,103.737 127.76,100 127.605,98.156C127.605,98.156 124.608,74.614 98.559,73.082C87.533,72.434 80.012,78.319 76.194,84.43C72.048,91.066 72.36,90.836 71.307,93.881C70.333,96.695 70.359,100.1 69.874,102.7Z" style="fill:white;"/>
            </g>
        </g>
    </g>
</svg>
