<?xml version="1.0" encoding="UTF-8" standalone="no"?>
<!DOCTYPE svg PUBLIC "-//W3C//DTD SVG 1.1//EN" "http://www.w3.org/Graphics/SVG/1.1/DTD/svg11.dtd">
<svg width="100%" height="100%" viewBox="0 0 200 200" version="1.1" xmlns="http://www.w3.org/2000/svg" xmlns:xlink="http://www.w3.org/1999/xlink" xml:space="preserve" xmlns:serif="http://www.serif.com/" style="fill-rule:evenodd;clip-rule:evenodd;stroke-linejoin:round;stroke-miterlimit:2;">
    <g transform="matrix(1,0,0,1,-161.703,-261.266)">
        <g transform="matrix(1,0,0,1,292.408,-172.397)">
            <rect x="-1057.14" y="-740.46" width="3426.96" height="2296.67"/>
        </g>
        <g id="Moon" transform="matrix(0.964471,0,0,1.06723,54.8779,334.655)">
            <rect x="110.76" y="-68.766" width="207.368" height="187.4" style="fill:none;"/>
            <g transform="matrix(1.17514,0,0,1.06199,-144.96,-381.998)">
                <path d="M351.736,382.768C351.737,382.903 351.737,383.038 351.737,383.173C351.737,408.81 330.924,429.623 305.287,429.623C279.651,429.623 258.837,408.81 258.837,383.173C258.837,357.912 279.045,337.334 304.163,336.736C291.022,355.24 289.717,377.255 302.035,388.457C313.977,399.317 334.824,396.468 351.736,382.768Z" style="fill:rgb(255,247,0);"/>
            </g>
        </g>
    </g>
</svg>
