<?xml version="1.0" encoding="UTF-8" standalone="no"?>
<!DOCTYPE svg PUBLIC "-//W3C//DTD SVG 1.1//EN" "http://www.w3.org/Graphics/SVG/1.1/DTD/svg11.dtd">
<svg width="100%" height="100%" viewBox="0 0 200 200" version="1.1" xmlns="http://www.w3.org/2000/svg" xmlns:xlink="http://www.w3.org/1999/xlink" xml:space="preserve" xmlns:serif="http://www.serif.com/" style="fill-rule:evenodd;clip-rule:evenodd;stroke-linejoin:round;stroke-miterlimit:2;">
    <g transform="matrix(1,0,0,1,-161.703,-10.0676)">
        <g transform="matrix(1,0,0,1,292.408,-172.397)">
            <rect x="-1057.14" y="-740.46" width="3426.96" height="2296.67"/>
        </g>
        <g id="Sun" transform="matrix(0.964471,0,0,1.06723,54.8779,83.4568)">
            <rect x="110.76" y="-68.766" width="207.368" height="187.4" style="fill:none;"/>
            <g transform="matrix(1.18031,-0.000534223,0.000591143,1.06665,-165.463,-85.0368)">
                <circle cx="321.82" cy="103.26" r="34.642" style="fill:rgb(255,247,0);"/>
            </g>
            <g transform="matrix(0.817757,0,0,0.739016,132.527,-50.0298)">
                <path d="M93.516,33.513L93.477,17.513C93.477,17.513 93.509,15.425 93.949,14.513C94.43,13.513 95.422,12.135 96.367,11.513C97.542,10.739 98.862,10.307 100.162,10.335C101.461,10.363 103.121,10.986 104.162,11.682C105.163,12.352 105.956,13.541 106.407,14.513C106.832,15.431 106.867,17.513 106.867,17.513L106.862,33.513C106.862,33.513 106.8,34.942 106.252,36.214C105.824,37.209 104.968,38.031 104.478,38.513C103.384,39.587 101.604,40.098 100.162,40.098C98.719,40.098 96.916,39.597 95.823,38.513C95.336,38.031 94.434,37.092 94.021,36.097C93.494,34.825 93.516,33.513 93.516,33.513Z" style="fill:rgb(255,255,0);"/>
            </g>
            <g transform="matrix(0.708199,-0.369508,0.408879,0.640007,102.026,-2.97217)">
                <path d="M93.516,33.513L93.477,17.513C93.477,17.513 93.509,15.425 93.949,14.513C94.43,13.513 95.422,12.135 96.367,11.513C97.542,10.739 98.862,10.307 100.162,10.335C101.461,10.363 103.121,10.986 104.162,11.682C105.163,12.352 105.956,13.541 106.407,14.513C106.832,15.431 106.867,17.513 106.867,17.513L106.862,33.513C106.862,33.513 106.8,34.942 106.252,36.214C105.824,37.209 104.968,38.031 104.478,38.513C103.384,39.587 101.604,40.098 100.162,40.098C98.719,40.098 96.916,39.597 95.823,38.513C95.336,38.031 94.434,37.092 94.021,36.097C93.494,34.825 93.516,33.513 93.516,33.513Z" style="fill:rgb(255,255,0);"/>
            </g>
            <g transform="matrix(0.408879,-0.640007,0.708199,0.369508,101.647,51.563)">
                <path d="M93.516,33.513L93.477,17.513C93.477,17.513 93.509,15.425 93.949,14.513C94.43,13.513 95.422,12.135 96.367,11.513C97.542,10.739 98.862,10.307 100.162,10.335C101.461,10.363 103.121,10.986 104.162,11.682C105.163,12.352 105.956,13.541 106.407,14.513C106.832,15.431 106.867,17.513 106.867,17.513L106.862,33.513C106.862,33.513 106.8,34.942 106.252,36.214C105.824,37.209 104.968,38.031 104.478,38.513C103.384,39.587 101.604,40.098 100.162,40.098C98.719,40.098 96.916,39.597 95.823,38.513C95.336,38.031 94.434,37.092 94.021,36.097C93.494,34.825 93.516,33.513 93.516,33.513Z" style="fill:rgb(255,255,0);"/>
            </g>
            <g transform="matrix(-4.37818e-17,-0.739016,0.817757,2.18909e-16,131.492,98.9631)">
                <path d="M93.516,33.513L93.477,17.513C93.477,17.513 93.509,15.425 93.949,14.513C94.43,13.513 95.422,12.135 96.367,11.513C97.542,10.739 98.862,10.307 100.162,10.335C101.461,10.363 103.121,10.986 104.162,11.682C105.163,12.352 105.956,13.541 106.407,14.513C106.832,15.431 106.867,17.513 106.867,17.513L106.862,33.513C106.862,33.513 106.8,34.942 106.252,36.214C105.824,37.209 104.968,38.031 104.478,38.513C103.384,39.587 101.604,40.098 100.162,40.098C98.719,40.098 96.916,39.597 95.823,38.513C95.336,38.031 94.434,37.092 94.021,36.097C93.494,34.825 93.516,33.513 93.516,33.513Z" style="fill:rgb(255,255,0);"/>
            </g>
            <g transform="matrix(-0.408879,-0.640007,0.708199,-0.369508,183.564,126.527)">
                <path d="M93.516,33.513L93.477,17.513C93.477,17.513 93.509,15.425 93.949,14.513C94.43,13.513 95.422,12.135 96.367,11.513C97.542,10.739 98.862,10.307 100.162,10.335C101.461,10.363 103.121,10.986 104.162,11.682C105.163,12.352 105.956,13.541 106.407,14.513C106.832,15.431 106.867,17.513 106.867,17.513L106.862,33.513C106.862,33.513 106.8,34.942 106.252,36.214C105.824,37.209 104.968,38.031 104.478,38.513C103.384,39.587 101.604,40.098 100.162,40.098C98.719,40.098 96.916,39.597 95.823,38.513C95.336,38.031 94.434,37.092 94.021,36.097C93.494,34.825 93.516,33.513 93.516,33.513Z" style="fill:rgb(255,255,0);"/>
            </g>
            <g transform="matrix(-0.708199,-0.369508,0.408879,-0.640007,243.91,126.87)">
                <path d="M93.516,33.513L93.477,17.513C93.477,17.513 93.509,15.425 93.949,14.513C94.43,13.513 95.422,12.135 96.367,11.513C97.542,10.739 98.862,10.307 100.162,10.335C101.461,10.363 103.121,10.986 104.162,11.682C105.163,12.352 105.956,13.541 106.407,14.513C106.832,15.431 106.867,17.513 106.867,17.513L106.862,33.513C106.862,33.513 106.8,34.942 106.252,36.214C105.824,37.209 104.968,38.031 104.478,38.513C103.384,39.587 101.604,40.098 100.162,40.098C98.719,40.098 96.916,39.597 95.823,38.513C95.336,38.031 94.434,37.092 94.021,36.097C93.494,34.825 93.516,33.513 93.516,33.513Z" style="fill:rgb(255,255,0);"/>
            </g>
            <g transform="matrix(-0.817757,0,4.37818e-17,-0.739016,296.36,99.8985)">
                <path d="M93.516,33.513L93.477,17.513C93.477,17.513 93.509,15.425 93.949,14.513C94.43,13.513 95.422,12.135 96.367,11.513C97.542,10.739 98.862,10.307 100.162,10.335C101.461,10.363 103.121,10.986 104.162,11.682C105.163,12.352 105.956,13.541 106.407,14.513C106.832,15.431 106.867,17.513 106.867,17.513L106.862,33.513C106.862,33.513 106.8,34.942 106.252,36.214C105.824,37.209 104.968,38.031 104.478,38.513C103.384,39.587 101.604,40.098 100.162,40.098C98.719,40.098 96.916,39.597 95.823,38.513C95.336,38.031 94.434,37.092 94.021,36.097C93.494,34.825 93.516,33.513 93.516,33.513Z" style="fill:rgb(255,255,0);"/>
            </g>
            <g transform="matrix(-0.708199,0.369508,-0.408879,-0.640007,326.861,52.8408)">
                <path d="M93.516,33.513L93.477,17.513C93.477,17.513 93.509,15.425 93.949,14.513C94.43,13.513 95.422,12.135 96.367,11.513C97.542,10.739 98.862,10.307 100.162,10.335C101.461,10.363 103.121,10.986 104.162,11.682C105.163,12.352 105.956,13.541 106.407,14.513C106.832,15.431 106.867,17.513 106.867,17.513L106.862,33.513C106.862,33.513 106.8,34.942 106.252,36.214C105.824,37.209 104.968,38.031 104.478,38.513C103.384,39.587 101.604,40.098 100.162,40.098C98.719,40.098 96.916,39.597 95.823,38.513C95.336,38.031 94.434,37.092 94.021,36.097C93.494,34.825 93.516,33.513 93.516,33.513Z" style="fill:rgb(255,255,0);"/>
            </g>
            <g transform="matrix(-0.408879,0.640007,-0.708199,-0.369508,327.24,-1.69438)">
                <path d="M93.516,33.513L93.477,17.513C93.477,17.513 93.509,15.425 93.949,14.513C94.43,13.513 95.422,12.135 96.367,11.513C97.542,10.739 98.862,10.307 100.162,10.335C101.461,10.363 103.121,10.986 104.162,11.682C105.163,12.352 105.956,13.541 106.407,14.513C106.832,15.431 106.867,17.513 106.867,17.513L106.862,33.513C106.862,33.513 106.8,34.942 106.252,36.214C105.824,37.209 104.968,38.031 104.478,38.513C103.384,39.587 101.604,40.098 100.162,40.098C98.719,40.098 96.916,39.597 95.823,38.513C95.336,38.031 94.434,37.092 94.021,36.097C93.494,34.825 93.516,33.513 93.516,33.513Z" style="fill:rgb(255,255,0);"/>
            </g>
            <g transform="matrix(-1.31345e-16,0.739016,-0.817757,-2.62691e-16,297.395,-49.0944)">
                <path d="M93.516,33.513L93.477,17.513C93.477,17.513 93.509,15.425 93.949,14.513C94.43,13.513 95.422,12.135 96.367,11.513C97.542,10.739 98.862,10.307 100.162,10.335C101.461,10.363 103.121,10.986 104.162,11.682C105.163,12.352 105.956,13.541 106.407,14.513C106.832,15.431 106.867,17.513 106.867,17.513L106.862,33.513C106.862,33.513 106.8,34.942 106.252,36.214C105.824,37.209 104.968,38.031 104.478,38.513C103.384,39.587 101.604,40.098 100.162,40.098C98.719,40.098 96.916,39.597 95.823,38.513C95.336,38.031 94.434,37.092 94.021,36.097C93.494,34.825 93.516,33.513 93.516,33.513Z" style="fill:rgb(255,255,0);"/>
            </g>
            <g transform="matrix(0.408879,0.640007,-0.708199,0.369508,245.324,-76.6585)">
                <path d="M93.516,33.513L93.477,17.513C93.477,17.513 93.509,15.425 93.949,14.513C94.43,13.513 95.422,12.135 96.367,11.513C97.542,10.739 98.862,10.307 100.162,10.335C101.461,10.363 103.121,10.986 104.162,11.682C105.163,12.352 105.956,13.541 106.407,14.513C106.832,15.431 106.867,17.513 106.867,17.513L106.862,33.513C106.862,33.513 106.8,34.942 106.252,36.214C105.824,37.209 104.968,38.031 104.478,38.513C103.384,39.587 101.604,40.098 100.162,40.098C98.719,40.098 96.916,39.597 95.823,38.513C95.336,38.031 94.434,37.092 94.021,36.097C93.494,34.825 93.516,33.513 93.516,33.513Z" style="fill:rgb(255,255,0);"/>
            </g>
            <g transform="matrix(0.708199,0.369508,-0.408879,0.640007,184.978,-77.0009)">
                <path d="M93.516,33.513L93.477,17.513C93.477,17.513 93.509,15.425 93.949,14.513C94.43,13.513 95.422,12.135 96.367,11.513C97.542,10.739 98.862,10.307 100.162,10.335C101.461,10.363 103.121,10.986 104.162,11.682C105.163,12.352 105.956,13.541 106.407,14.513C106.832,15.431 106.867,17.513 106.867,17.513L106.862,33.513C106.862,33.513 106.8,34.942 106.252,36.214C105.824,37.209 104.968,38.031 104.478,38.513C103.384,39.587 101.604,40.098 100.162,40.098C98.719,40.098 96.916,39.597 95.823,38.513C95.336,38.031 94.434,37.092 94.021,36.097C93.494,34.825 93.516,33.513 93.516,33.513Z" style="fill:rgb(255,255,0);"/>
            </g>
        </g>
    </g>
</svg>
